<svg width="152" height="32" viewBox="0 0 152 32" fill="none" xmlns="http://www.w3.org/2000/svg">
<path d="M18.928 12.9406C19.744 13.4986 20.5759 14.0256 21.3489 14.6566C22.2556 15.4788 22.9508 16.5074 23.3758 17.6552C23.8008 18.803 23.943 20.0364 23.7903 21.2508C23.6377 22.4652 23.1947 23.6249 22.4988 24.6319C21.803 25.6388 20.8748 26.4633 19.7928 27.0356C17.9024 27.9463 15.826 28.4044 13.7278 28.3736C9.46285 28.3986 5.19704 28.3736 0.928045 28.3926C0.399045 28.3926 0.213131 28.2756 0.216131 27.7086C0.237131 22.7646 0.215756 17.8206 0.231756 12.8766C0.217289 11.948 0.571264 11.0515 1.21613 10.3832C1.861 9.71495 2.74466 9.32927 3.67316 9.31061C4.36516 9.21661 5.07317 9.2556 5.75617 9.1106C9.21583 9.56374 12.6148 10.3968 15.8919 11.5946C16.6252 11.8653 17.3564 12.1382 18.0858 12.4136C18.4212 12.481 18.7208 12.6684 18.928 12.9406Z" fill="#00DCC0"/>
<path d="M18.9281 12.9405C16.369 11.9163 13.7484 11.0526 11.0819 10.3545C9.3579 9.97747 7.64691 9.53648 5.89391 9.31248C5.66091 9.14348 5.28512 9.38152 5.11412 9.03752C4.38512 8.83752 3.65409 8.6375 2.92809 8.4265C2.15555 8.2413 1.46996 7.79698 0.985216 7.16758C0.500477 6.53819 0.245795 5.76173 0.264025 4.96751C0.202025 3.63651 0.24331 2.30151 0.23131 0.967511C0.23131 0.698511 0.259892 0.521485 0.602892 0.528485C5.72589 0.628485 10.854 0.312511 15.972 0.717511C16.8852 0.79544 17.7813 1.01332 18.6283 1.36351C21.7983 2.65251 22.6423 5.4385 22.2943 8.3325C22.1772 9.3253 21.8054 10.271 21.2157 11.0783C20.626 11.8855 19.8382 12.5269 18.9281 12.9405Z" fill="#125EEC"/>
<path d="M79.6499 4.43951C80.6924 4.45988 81.718 4.7078 82.6547 5.16589C83.5915 5.62397 84.417 6.28119 85.0732 7.09155C85.5781 7.75814 85.9329 8.52599 86.1132 9.34252C86.2132 9.73652 86.0998 9.89149 85.6938 9.97649C84.8235 10.1493 83.9639 10.3703 83.1181 10.6385C82.6421 10.7945 82.5081 10.6385 82.3261 10.2385C82.1009 9.75986 81.7819 9.33126 81.3881 8.97802C80.9944 8.62478 80.5338 8.35405 80.0336 8.18194C79.5334 8.00983 79.0038 7.93978 78.476 7.97594C77.9483 8.01211 77.4329 8.15377 76.9609 8.39251C76.6503 8.5364 76.3894 8.76931 76.2114 9.06164C76.0333 9.35397 75.9462 9.69258 75.9609 10.0345C75.9665 10.3639 76.0747 10.6832 76.2705 10.9482C76.4662 11.2131 76.74 11.4104 77.0532 11.5125C79.0532 12.4225 81.2121 12.8965 83.1801 13.8655C84.4825 14.3701 85.5717 15.3071 86.2651 16.5195C86.8987 17.8883 86.9729 19.4504 86.4721 20.8732C85.9714 22.296 84.9352 23.4672 83.5839 24.1375C82.11 24.953 80.4287 25.317 78.7495 25.1842C77.0702 25.0514 75.4675 24.4276 74.1401 23.3905C73.397 22.8069 72.7823 22.0762 72.3349 21.244C71.8875 20.4118 71.617 19.4962 71.54 18.5545C71.494 18.2215 71.5529 18.0285 71.9399 17.9545C72.9649 17.7545 73.99 17.5545 74.996 17.2775C75.455 17.1535 75.5248 17.3315 75.5908 17.6955C75.6626 18.1321 75.7731 18.5614 75.9208 18.9785C76.7378 21.1675 78.069 21.9235 80.371 21.5125C80.8362 21.4463 81.2901 21.3167 81.7202 21.1275C82.0909 20.9906 82.4101 20.7429 82.6352 20.418C82.8603 20.0931 82.9801 19.7067 82.978 19.3115C83.0007 18.9044 82.9043 18.4996 82.7001 18.1466C82.496 17.7936 82.1932 17.5079 81.8291 17.3245C80.5634 16.6475 79.2228 16.1206 77.8349 15.7545C76.5602 15.3732 75.3518 14.7982 74.2519 14.0496C71.4769 12.2586 71.5519 7.93855 74.2319 5.91155C75.5689 4.89055 77.0349 4.40451 79.6499 4.43951Z" fill="#101419"/>
<path d="M125.533 11.2385C127.454 9.28753 129.579 8.78249 131.94 9.79249C132.857 10.1683 133.636 10.8183 134.17 11.6538C134.704 12.4892 134.966 13.4691 134.922 14.4595C134.98 17.6995 134.929 20.9425 134.944 24.1835C134.944 24.5925 134.838 24.7285 134.421 24.7145C133.559 24.6845 132.694 24.6785 131.833 24.7145C131.365 24.7355 131.279 24.5615 131.281 24.1345C131.299 21.4165 131.291 18.6975 131.29 15.9785C131.29 15.7695 131.298 15.5595 131.281 15.3525C131.127 13.5745 130.275 12.6655 128.818 12.7205C126.731 12.7995 125.718 13.7315 125.709 15.6205C125.697 18.4205 125.692 21.2145 125.719 24.0115C125.719 24.5365 125.628 24.7485 125.051 24.7115C124.191 24.6585 123.325 24.6765 122.463 24.7115C122.042 24.7265 121.94 24.5805 121.941 24.1755C121.955 19.5488 121.955 14.9221 121.941 10.2955C121.941 9.89548 122.041 9.74047 122.465 9.75647C123.222 9.79971 123.981 9.79773 124.738 9.75049C125.386 9.69749 125.656 9.88548 125.538 10.5505C125.52 10.7794 125.518 11.0094 125.533 11.2385Z" fill="#101419"/>
<path d="M108.761 11.2625C109.861 9.68852 111.121 9.06247 112.81 9.44947C113.205 9.53847 113.319 9.6905 113.241 10.0915C113.076 10.9355 112.935 11.7915 112.83 12.6405C112.783 13.0335 112.696 13.1615 112.257 13.0965C110.157 12.7875 109.09 13.6525 109.033 15.8095C108.962 18.5245 108.973 21.2425 109 23.9585C109.006 24.5915 108.818 24.7585 108.216 24.7185C107.383 24.6675 106.544 24.6915 105.708 24.7125C105.368 24.7215 105.263 24.6205 105.263 24.2735C105.274 19.5455 105.274 14.8172 105.263 10.0885C105.263 9.71851 105.363 9.58847 105.742 9.60047C106.525 9.62747 107.312 9.64647 108.093 9.60047C108.652 9.56447 108.846 9.74548 108.768 10.2905C108.747 10.6141 108.744 10.9387 108.761 11.2625Z" fill="#101419"/>
<path d="M52.6717 17.3132C52.6717 19.5622 52.6579 21.8132 52.6829 24.0602C52.6879 24.5502 52.5906 24.7492 52.0506 24.7182C51.1906 24.6692 50.3247 24.6862 49.4627 24.7182C49.0527 24.7312 48.9309 24.6042 48.9319 24.1892C48.9459 19.5605 48.9459 14.9322 48.9319 10.3042C48.9319 9.90418 49.0318 9.75017 49.4558 9.76317C50.3448 9.79017 51.2358 9.79617 52.1228 9.76317C52.5818 9.74517 52.6825 9.90918 52.6795 10.3382C52.6615 12.6582 52.6717 14.9852 52.6717 17.3132Z" fill="#101419"/>
<path d="M118.664 17.2645C118.664 19.5135 118.648 21.7645 118.677 24.0125C118.683 24.5324 118.592 24.7564 118.01 24.7184C117.176 24.6644 116.336 24.6865 115.499 24.7125C115.106 24.7245 114.958 24.6305 114.961 24.2015C114.981 19.5721 114.986 14.9424 114.976 10.3124C114.976 9.85844 115.121 9.74047 115.554 9.75647C116.39 9.78847 117.229 9.79447 118.064 9.75647C118.545 9.73347 118.682 9.86844 118.676 10.3564C118.648 12.6604 118.664 14.9625 118.664 17.2645Z" fill="#101419"/>
<path d="M50.8445 7.4655C48.9445 7.4655 48.9446 7.46552 48.9446 5.57652C48.9446 4.01152 48.9446 4.00647 50.5506 4.01347C51.2256 4.01347 52.0977 3.79348 52.5237 4.12748C52.9767 4.48448 52.6577 5.39652 52.6697 6.06352C52.6937 7.46352 52.6765 7.46348 51.2415 7.46348L50.8445 7.4655Z" fill="#11151A"/>
<path d="M116.889 4.01147C118.665 4.01147 118.665 4.01147 118.664 5.79547C118.664 7.46547 118.664 7.48047 117.026 7.45947C116.357 7.45047 115.467 7.75948 115.082 7.31848C114.755 6.94448 114.982 6.07747 114.982 5.42847C114.982 4.01247 114.982 4.01245 116.419 4.01245L116.889 4.01147Z" fill="#101419"/>
<path d="M5.11404 9.03723C5.36404 9.15523 5.67632 9.10126 5.89432 9.31226H3.67801C4.11001 8.97726 4.67404 9.33623 5.11404 9.03723Z" fill="#59D4DC"/>
<path d="M43.7059 13.9483C44.2012 13.6103 44.6397 13.1962 45.0057 12.7213C45.4753 12.0383 45.7524 11.2415 45.808 10.4146C45.8636 9.58761 45.6956 8.76093 45.3216 8.02126C44.9604 7.15654 44.3647 6.41011 43.6014 5.86635C42.8382 5.32259 41.9381 5.00323 41.0028 4.94429C38.0028 4.68529 34.9926 4.89626 31.9876 4.83626C31.4706 4.82626 31.4696 5.07825 31.4706 5.45625C31.4792 8.67159 31.4813 11.8866 31.4759 15.1013C31.4759 18.1073 31.4775 21.1133 31.4808 24.1193C31.4808 24.3643 31.3208 24.7193 31.8358 24.7113C35.0738 24.6303 38.3237 24.9613 41.5497 24.5283C42.738 24.381 43.8495 23.8617 44.725 23.0446C45.6004 22.2276 46.1948 21.1546 46.4237 19.9793C46.9507 17.2783 46.1249 15.4403 43.7059 13.9483ZM35.9349 8.34828C37.1899 8.36828 38.4465 8.33525 39.7015 8.36525C40.0036 8.33919 40.308 8.37844 40.5936 8.48036C40.8792 8.58229 41.1394 8.74449 41.3568 8.95595C41.5741 9.16741 41.7436 9.4232 41.8534 9.70589C41.9631 9.98857 42.0103 10.2915 41.9925 10.5943C42.0083 10.896 41.9589 11.1976 41.8475 11.4784C41.7361 11.7593 41.5654 12.0128 41.347 12.2216C41.1287 12.4305 40.8679 12.5897 40.5824 12.6886C40.2969 12.7874 39.9935 12.8235 39.6927 12.7943C39.0927 12.8123 38.4929 12.7943 37.8929 12.7943C37.2389 12.7943 36.584 12.7733 35.932 12.8023C35.532 12.8203 35.3829 12.7202 35.3939 12.2902C35.4239 11.1402 35.4259 9.99025 35.3939 8.83925C35.3729 8.39825 35.5579 8.34125 35.9349 8.34725V8.34828ZM40.5487 20.9633C39.7707 21.0183 38.986 20.9733 38.203 20.9733V21.0142C37.446 21.0142 36.689 21.0003 35.933 21.0203C35.561 21.0303 35.3736 20.9693 35.3846 20.5203C35.4156 19.1383 35.4066 17.7552 35.3846 16.3732C35.3846 16.0072 35.4757 15.8733 35.8607 15.8833C37.3997 15.9083 38.9409 15.8682 40.4789 15.9152C40.7867 15.9131 41.0915 15.9729 41.3758 16.0909C41.6601 16.2089 41.9182 16.3828 42.1341 16.6022C42.35 16.8216 42.5193 17.0821 42.6327 17.3683C42.746 17.6545 42.8009 17.9605 42.7938 18.2683C42.8188 19.9593 42.0967 20.8542 40.5487 20.9672V20.9633Z" fill="#101419"/>
<path d="M151.311 9.89448C150.911 9.55348 150.024 9.77348 149.351 9.76948C147.963 9.76048 147.963 9.76952 147.762 11.0855C147.473 10.7927 147.168 10.5165 146.848 10.2585C145.712 9.55321 144.376 9.24069 143.045 9.36897C141.714 9.49725 140.462 10.0593 139.482 10.9685C136.362 13.8965 136.417 19.0135 138.077 21.8305C140.187 25.4105 145.014 26.3005 147.683 23.3195C147.683 23.9895 147.683 24.5795 147.683 25.1705C147.73 25.583 147.685 26.0007 147.551 26.3937C147.417 26.7866 147.197 27.145 146.908 27.443C146.619 27.741 146.268 27.9712 145.88 28.1171C145.491 28.2629 145.075 28.3208 144.661 28.2865C143.856 28.3158 143.062 28.0985 142.384 27.6639C141.707 27.2292 141.178 26.5979 140.869 25.8545C140.363 26.1945 139.908 26.4975 139.454 26.8045C137.939 27.8305 137.924 27.9905 139.208 29.3585C139.244 29.3965 139.283 29.4315 139.32 29.4685C140.063 30.1685 140.943 30.7069 141.904 31.0499C142.865 31.393 143.888 31.5331 144.906 31.4615C145.77 31.4892 146.631 31.3396 147.435 31.0218C148.24 30.7041 148.971 30.2249 149.583 29.614C150.195 29.003 150.675 28.2731 150.994 27.4694C151.314 26.6656 151.465 25.805 151.439 24.9405C151.439 20.5752 151.437 16.2085 151.434 11.8405C151.433 11.1705 151.732 10.2555 151.311 9.89448ZM147.717 15.9195C147.7 16.3625 147.717 16.8075 147.717 17.2515C147.717 17.6955 147.722 18.1395 147.717 18.5835C147.77 19.2268 147.611 19.8698 147.263 20.4138C146.916 20.9579 146.4 21.3729 145.794 21.5955C145.165 21.8622 144.471 21.9381 143.8 21.8136C143.128 21.6891 142.508 21.3699 142.016 20.8955C140.226 19.2675 140.236 14.8445 142.224 13.3805C142.733 12.9657 143.349 12.7024 144 12.6209C144.652 12.5394 145.313 12.6429 145.909 12.9195C146.496 13.1541 146.991 13.5741 147.317 14.1157C147.644 14.6573 147.784 15.2907 147.717 15.9195Z" fill="#101419"/>
<path d="M69.3613 10.2142C69.3613 9.79616 69.1817 9.75016 68.8447 9.76116C68.2697 9.78016 67.6946 9.76617 67.1186 9.76617C65.8806 9.76617 65.8814 9.76615 65.8134 10.9961C65.8134 11.0241 65.7426 11.0482 65.7016 11.0762C65.4127 10.779 65.1065 10.4992 64.7846 10.2382C62.6796 8.71315 59.2715 9.16217 57.3085 11.0992C54.4225 13.9482 54.3162 18.8361 56.0082 21.7801C58.1622 25.5211 63.0576 26.2351 65.6616 23.2801C65.6616 24.1491 65.6897 24.8512 65.6557 25.5492C65.6619 26.1446 65.4647 26.7243 65.0966 27.1924C64.7286 27.6604 64.2114 27.9888 63.6313 28.1232C62.9422 28.345 62.2046 28.3674 61.5034 28.1876C60.8021 28.0078 60.1658 27.6332 59.6684 27.1072C59.3094 26.7452 59.2034 25.9712 58.7104 26.0072C58.2334 26.0442 57.7913 26.5522 57.3383 26.8602C55.8273 27.8852 55.8126 28.0602 57.0966 29.3952C57.1326 29.4332 57.1704 29.4682 57.2084 29.5052C58.0267 30.2622 59.0027 30.8286 60.0659 31.1639C61.129 31.4991 62.2528 31.5948 63.3574 31.4441C64.9318 31.3949 66.4275 30.7437 67.5361 29.6246C68.6447 28.5056 69.2818 27.004 69.3163 25.4292C69.4173 20.3592 69.3453 15.2862 69.3613 10.2142ZM65.6962 17.1792H65.6865C65.6865 17.7272 65.7166 18.2791 65.6806 18.8241C65.6827 19.4447 65.4882 20.0499 65.1249 20.5529C64.7617 21.056 64.2483 21.431 63.6586 21.6242C63.0503 21.8774 62.3809 21.9461 61.7338 21.8216C61.0868 21.6971 60.4904 21.385 60.0195 20.9242C58.1195 19.1242 58.1483 15.1442 60.0703 13.4692C60.5662 13.016 61.1848 12.719 61.8486 12.6153C62.5123 12.5116 63.1922 12.6058 63.8027 12.8862C64.4098 13.1128 64.9249 13.5336 65.2685 14.0831C65.612 14.6326 65.7647 15.2801 65.7026 15.9252C65.6866 16.3432 65.6962 16.7612 65.6962 17.1792Z" fill="#101419"/>
<path d="M102.463 13.9635C102.127 12.7819 101.457 11.7226 100.533 10.9132C99.6085 10.1038 98.4702 9.57883 97.2547 9.40154C96.3172 9.21685 95.3477 9.28234 94.4436 9.59148C93.5395 9.90063 92.7329 10.4425 92.1048 11.1625C92.09 10.9591 92.09 10.7549 92.1048 10.5515C92.2268 9.8885 91.955 9.69351 91.305 9.75151C90.6264 9.80543 89.9445 9.80543 89.2659 9.75151C88.7279 9.71451 88.5657 9.8585 88.5657 10.4265C88.587 17.0705 88.587 23.7145 88.5657 30.3585C88.5657 30.8865 88.6659 31.1095 89.2449 31.0685C89.9768 31.0044 90.7127 31.0044 91.4446 31.0685C92.1766 31.1455 92.2911 30.8575 92.2801 30.2025C92.2391 27.9415 92.2639 25.6795 92.2639 23.3845C92.3839 23.4325 92.443 23.4375 92.469 23.4695C94.459 25.9355 99.1107 25.6445 101.255 22.7255C102.186 21.489 102.786 20.0349 102.997 18.5015C103.209 16.968 103.025 15.4059 102.463 13.9635ZM97.9016 20.9735C97.4113 21.4338 96.7946 21.7369 96.1306 21.8438C95.4667 21.9507 94.7861 21.8566 94.1761 21.5735C93.5962 21.3548 93.1003 20.9583 92.7591 20.441C92.4179 19.9236 92.2484 19.3117 92.2757 18.6925C92.2617 18.1925 92.2757 17.7005 92.2757 17.2035C92.2757 16.7855 92.2757 16.3675 92.2757 15.9495C92.2231 15.2662 92.3996 14.5848 92.7771 14.0128C93.1547 13.4408 93.7117 13.0108 94.3606 12.7905C95.0322 12.5635 95.7553 12.5361 96.4422 12.7117C97.129 12.8872 97.7504 13.2581 98.2307 13.7795C99.8287 15.5865 99.6816 19.3535 97.9016 20.9725V20.9735Z" fill="#101419"/>
</svg>
