<svg width="494" height="512" viewBox="0 0 494 512" fill="none" xmlns="http://www.w3.org/2000/svg">
<circle cx="257.603" cy="283.52" r="226.58" stroke="#DDDDED" stroke-width="2.35612" stroke-dasharray="6.28 6.28"/>
<circle cx="257.603" cy="283.52" r="171.604" stroke="#DDDDED" stroke-width="2.35612" stroke-dasharray="6.28 6.28"/>
<circle cx="407.609" cy="86.3911" r="86.3911" fill="#3ADAD9"/>
<circle cx="428.029" cy="241.11" r="11.7806" fill="#25D68B"/>
<circle cx="360.486" cy="104.455" r="11.7806" fill="white" fill-opacity="0.29"/>
<circle cx="446.878" cy="60.4737" r="7.85374" fill="white" fill-opacity="0.29"/>
<circle cx="376.194" cy="420.96" r="78.5374" fill="#FD9B79"/>
<circle cx="328.286" cy="400.541" r="7.06836" fill="#F49159"/>
<circle cx="171.211" cy="34.5564" r="9.42448" fill="#EC844A"/>
<circle cx="409.965" cy="449.234" r="20.4197" fill="#F49159"/>
<circle cx="70.6836" cy="190.846" r="70.6836" fill="#F3C758"/>
<circle cx="98.9571" cy="429.599" r="19.6343" fill="#4A81EC"/>
<circle cx="89.5326" cy="164.928" r="16.4928" fill="white" fill-opacity="0.25"/>
<circle cx="26.31" cy="204.59" r="5.8903" fill="white" fill-opacity="0.25"/>
<g clip-path="url(#clip0_141_1153)">
<path d="M407.609 43.6496C405.889 43.6496 404.233 44.1672 402.82 45.1465C402.403 45.436 402.297 46.0116 402.585 46.4323C402.872 46.8529 403.443 46.9592 403.861 46.6698C404.966 45.9037 406.262 45.4988 407.609 45.4988C411.261 45.4988 414.231 48.4915 414.231 52.1702C414.231 55.8488 411.261 58.8417 407.609 58.8417C403.958 58.8417 400.988 55.8488 400.988 52.1702C400.988 51.085 401.238 50.0505 401.731 49.0955C401.965 48.6425 401.79 48.0843 401.34 47.8486C400.891 47.6132 400.337 47.789 400.103 48.2421C399.481 49.4461 399.152 50.8045 399.152 52.1702C399.152 56.8685 402.946 60.6909 407.609 60.6909C412.273 60.6909 416.066 56.8685 416.066 52.1702C416.066 47.4719 412.273 43.6496 407.609 43.6496Z" fill="white"/>
<path d="M438.954 93.7504L429.897 71.8256C429.755 71.4809 429.421 71.2563 429.05 71.2563H420.025C421.78 68.8636 423.241 66.4804 424.383 64.1404C426.405 59.9933 427.43 55.966 427.43 52.1699C427.43 41.1586 418.539 32.2003 407.61 32.2003C396.68 32.2003 387.789 41.1586 387.789 52.1698C387.789 55.9658 388.814 59.9933 390.837 64.1402C391.978 66.4803 393.439 68.8636 395.194 71.2562H386.169C385.799 71.2562 385.464 71.4809 385.322 71.8255L379.15 86.7655C378.956 87.237 379.177 87.7781 379.645 87.9742C379.76 88.0226 379.88 88.0455 379.997 88.0455C380.357 88.0455 380.698 87.8313 380.845 87.476L381.725 85.3442H387.972L384.735 93.181H378.488L379.427 90.9092C379.621 90.4377 379.4 89.8966 378.932 89.7005C378.464 89.504 377.927 89.7273 377.732 90.1987L376.265 93.7504C376.147 94.0357 376.179 94.3617 376.349 94.6186C376.519 94.8757 376.806 95.0302 377.112 95.0302H438.107C438.414 95.0302 438.7 94.8757 438.87 94.6186C439.04 94.3617 439.072 94.0357 438.954 93.7504ZM389.624 52.1698C389.624 42.1781 397.693 34.0494 407.61 34.0494C417.527 34.0494 425.595 42.1782 425.595 52.1698C425.595 56.3596 424.15 63.0549 417.466 71.587C417.459 71.595 417.453 71.6035 417.446 71.6117C417.105 72.047 416.75 72.4869 416.381 72.9318C412.708 77.3571 408.991 80.5885 407.609 81.7367C406.232 80.5925 402.533 77.3772 398.862 72.9604C398.484 72.505 398.121 72.0547 397.771 71.6093C397.766 71.6021 397.76 71.5948 397.754 71.5878C391.07 63.0563 389.624 56.3612 389.624 52.1698ZM386.781 73.1054H393.028L390.75 78.6212H384.503L386.781 73.1054ZM392.147 93.1811L397.883 79.2962L414.206 93.1811H392.147ZM417.051 93.1811L398.109 77.0687C397.886 76.8784 397.585 76.8071 397.301 76.8765C397.017 76.9459 396.783 77.1477 396.67 77.4198L390.159 93.181H386.723L390.195 84.7748C390.313 84.4895 390.282 84.1637 390.111 83.9066C389.941 83.6495 389.655 83.495 389.348 83.495H382.489L383.739 80.4701H391.362C391.732 80.4701 392.067 80.2454 392.209 79.9008L395.016 73.1053H396.609C396.885 73.4526 397.166 73.8 397.455 74.1472C402.19 79.8449 406.852 83.5029 407.048 83.6559C407.213 83.7849 407.412 83.8492 407.61 83.8492C407.808 83.8492 408.006 83.7848 408.171 83.6559C408.279 83.5718 409.737 82.4277 411.812 80.4702H422.204C422.711 80.4702 423.122 80.0563 423.122 79.5457C423.122 79.0351 422.711 78.6212 422.204 78.6212H413.704C414.976 77.3323 416.367 75.8295 417.765 74.1474C418.053 73.8001 418.334 73.4528 418.611 73.1054H428.438L430.717 78.6212H425.875C425.368 78.6212 424.957 79.0351 424.957 79.5457C424.957 80.0563 425.368 80.4702 425.875 80.4702H431.48L432.73 83.4952H413.823C413.44 83.4952 413.098 83.7347 412.963 84.0962C412.829 84.4577 412.932 84.865 413.222 85.1179L422.441 93.1811H417.051ZM425.241 93.1811L416.28 85.3443H433.494L436.731 93.1811H425.241Z" fill="white"/>
</g>
<path d="M386.57 130.596V115.093H388.923L394.421 125.231L399.897 115.093H402.206V130.596H399.655V120.151L395.213 128.243H393.563L389.121 120.195V130.596H386.57ZM409.334 130.816C408.557 130.816 407.861 130.669 407.245 130.376C406.644 130.068 406.167 129.658 405.816 129.145C405.478 128.632 405.31 128.053 405.31 127.408C405.31 126.616 405.515 125.993 405.926 125.538C406.336 125.069 407.003 124.732 407.927 124.527C408.85 124.322 410.089 124.219 411.643 124.219H412.413V123.757C412.413 123.024 412.251 122.496 411.929 122.174C411.606 121.851 411.064 121.69 410.302 121.69C409.701 121.69 409.085 121.785 408.454 121.976C407.824 122.152 407.186 122.43 406.541 122.812L405.75 120.942C406.131 120.678 406.578 120.451 407.091 120.261C407.619 120.055 408.169 119.901 408.74 119.799C409.327 119.682 409.876 119.623 410.39 119.623C411.958 119.623 413.124 119.989 413.886 120.722C414.648 121.441 415.03 122.562 415.03 124.087V130.596H412.457V128.881C412.207 129.482 411.812 129.958 411.269 130.31C410.727 130.648 410.082 130.816 409.334 130.816ZM409.906 128.925C410.624 128.925 411.218 128.676 411.687 128.177C412.171 127.679 412.413 127.048 412.413 126.286V125.802H411.665C410.287 125.802 409.327 125.912 408.784 126.132C408.257 126.337 407.993 126.719 407.993 127.276C407.993 127.759 408.161 128.155 408.498 128.463C408.836 128.771 409.305 128.925 409.906 128.925ZM418.259 134.554V119.843H420.942V121.558C421.25 120.972 421.712 120.503 422.328 120.151C422.958 119.799 423.669 119.623 424.461 119.623C425.399 119.623 426.22 119.85 426.924 120.305C427.642 120.759 428.199 121.404 428.595 122.24C428.991 123.061 429.189 124.05 429.189 125.209C429.189 126.352 428.991 127.349 428.595 128.199C428.199 129.035 427.649 129.68 426.946 130.134C426.242 130.589 425.414 130.816 424.461 130.816C423.698 130.816 423.009 130.655 422.394 130.332C421.793 129.995 421.331 129.548 421.008 128.991V134.554H418.259ZM423.691 128.727C424.512 128.727 425.172 128.434 425.67 127.847C426.169 127.246 426.418 126.367 426.418 125.209C426.418 124.036 426.169 123.163 425.67 122.592C425.172 122.005 424.512 121.712 423.691 121.712C422.87 121.712 422.21 122.005 421.712 122.592C421.213 123.163 420.964 124.036 420.964 125.209C420.964 126.367 421.213 127.246 421.712 127.847C422.21 128.434 422.87 128.727 423.691 128.727Z" fill="white"/>
<path d="M39.9834 222.37C38.7163 222.37 37.6278 222.117 36.7178 221.61C35.8193 221.091 35.1282 220.366 34.6444 219.433C34.1606 218.488 33.9187 217.377 33.9187 216.098C33.9187 214.819 34.1606 213.714 34.6444 212.781C35.1282 211.847 35.8193 211.128 36.7178 210.621C37.6278 210.102 38.7163 209.843 39.9834 209.843C40.8012 209.843 41.573 209.97 42.2986 210.223C43.0359 210.477 43.6406 210.84 44.1129 211.312L43.3872 213.074C42.8688 212.637 42.339 212.32 41.7976 212.124C41.2562 211.917 40.6745 211.813 40.0525 211.813C38.82 211.813 37.8812 212.187 37.2361 212.936C36.5911 213.673 36.2685 214.727 36.2685 216.098C36.2685 217.469 36.5911 218.528 37.2361 219.277C37.8812 220.026 38.82 220.4 40.0525 220.4C40.6745 220.4 41.2562 220.302 41.7976 220.106C42.339 219.899 42.8688 219.577 43.3872 219.139L44.1129 220.901C43.6406 221.362 43.0359 221.725 42.2986 221.99C41.573 222.243 40.8012 222.37 39.9834 222.37ZM48.6593 222.37C48.0488 222.37 47.5017 222.255 47.0179 222.024C46.5456 221.782 46.1713 221.46 45.8948 221.057C45.6299 220.654 45.4974 220.199 45.4974 219.692C45.4974 219.07 45.6587 218.58 45.9812 218.223C46.3037 217.855 46.8278 217.59 47.5535 217.428C48.2792 217.267 49.2525 217.186 50.4735 217.186H51.0783V216.824C51.0783 216.248 50.9516 215.833 50.6982 215.58C50.4447 215.326 50.0185 215.199 49.4196 215.199C48.9473 215.199 48.4635 215.274 47.9682 215.424C47.4729 215.562 46.9718 215.781 46.465 216.081L45.843 214.612C46.1425 214.405 46.4938 214.226 46.8969 214.076C47.3116 213.915 47.7436 213.794 48.1928 213.714C48.6536 213.621 49.0855 213.575 49.4887 213.575C50.7212 213.575 51.6369 213.863 52.2359 214.439C52.8349 215.004 53.1344 215.885 53.1344 217.083V222.197H51.1128V220.849C50.917 221.322 50.606 221.696 50.1798 221.973C49.7536 222.237 49.2468 222.37 48.6593 222.37ZM49.1086 220.884C49.673 220.884 50.1395 220.688 50.5081 220.297C50.8882 219.905 51.0783 219.41 51.0783 218.811V218.43H50.4908C49.4081 218.43 48.6536 218.517 48.2274 218.69C47.8127 218.851 47.6054 219.15 47.6054 219.588C47.6054 219.968 47.7378 220.279 48.0028 220.521C48.2677 220.763 48.6363 220.884 49.1086 220.884ZM58.6094 222.37C57.6073 222.37 56.8643 222.099 56.3805 221.558C55.9083 221.005 55.6721 220.199 55.6721 219.139V210.016H57.8319V219.035C57.8319 220.072 58.2696 220.59 59.145 220.59C59.2718 220.59 59.3985 220.585 59.5252 220.573C59.6519 220.561 59.7728 220.538 59.888 220.504L59.8535 222.214C59.4388 222.318 59.0241 222.37 58.6094 222.37ZM65.6149 222.37C64.6589 222.37 63.8353 222.191 63.1441 221.834C62.453 221.477 61.9174 220.97 61.5373 220.314C61.1687 219.657 60.9844 218.88 60.9844 217.981C60.9844 217.106 61.1629 216.34 61.52 215.683C61.8886 215.027 62.3897 214.514 63.0232 214.145C63.6683 213.765 64.3997 213.575 65.2175 213.575C66.4155 213.575 67.36 213.955 68.0512 214.716C68.7538 215.476 69.1051 216.513 69.1051 217.826V218.465H63.0578C63.219 219.974 64.0829 220.728 65.6495 220.728C66.1218 220.728 66.594 220.659 67.0663 220.521C67.5386 220.371 67.9705 220.141 68.3622 219.83L68.9669 221.281C68.5637 221.615 68.0569 221.88 67.4464 222.076C66.8359 222.272 66.2254 222.37 65.6149 222.37ZM65.3039 215.044C64.6704 215.044 64.1578 215.24 63.7662 215.631C63.3745 216.023 63.1384 216.553 63.0578 217.221H67.3082C67.2621 216.518 67.0663 215.983 66.7207 215.614C66.3867 215.234 65.9144 215.044 65.3039 215.044ZM71.1611 222.197V213.748H73.269V215.061C73.557 214.577 73.9429 214.209 74.4267 213.955C74.922 213.702 75.4749 213.575 76.0854 213.575C78.0781 213.575 79.0745 214.733 79.0745 217.048V222.197H76.9147V217.152C76.9147 216.495 76.788 216.017 76.5346 215.718C76.2927 215.418 75.9126 215.269 75.3943 215.269C74.7607 215.269 74.2539 215.47 73.8738 215.873C73.5052 216.265 73.3209 216.789 73.3209 217.446V222.197H71.1611ZM84.8621 222.37C84.1249 222.37 83.474 222.191 82.9096 221.834C82.3567 221.477 81.9248 220.97 81.6137 220.314C81.3027 219.646 81.1472 218.862 81.1472 217.964C81.1472 217.054 81.3027 216.276 81.6137 215.631C81.9248 214.975 82.3567 214.468 82.9096 214.111C83.474 213.754 84.1249 213.575 84.8621 213.575C85.461 213.575 86.0024 213.708 86.4862 213.973C86.97 214.238 87.3328 214.589 87.5747 215.027V210.016H89.7345V222.197H87.6266V220.798C87.3962 221.281 87.0334 221.667 86.538 221.955C86.0427 222.232 85.4841 222.37 84.8621 222.37ZM85.4668 220.728C86.1118 220.728 86.6302 220.498 87.0218 220.037C87.4135 219.565 87.6093 218.874 87.6093 217.964C87.6093 217.042 87.4135 216.357 87.0218 215.908C86.6302 215.447 86.1118 215.217 85.4668 215.217C84.8217 215.217 84.3034 215.447 83.9118 215.908C83.5201 216.357 83.3243 217.042 83.3243 217.964C83.3243 218.874 83.5201 219.565 83.9118 220.037C84.3034 220.498 84.8217 220.728 85.4668 220.728ZM95.1013 222.37C94.4908 222.37 93.9436 222.255 93.4599 222.024C92.9876 221.782 92.6132 221.46 92.3368 221.057C92.0718 220.654 91.9394 220.199 91.9394 219.692C91.9394 219.07 92.1006 218.58 92.4232 218.223C92.7457 217.855 93.2698 217.59 93.9955 217.428C94.7212 217.267 95.6945 217.186 96.9155 217.186H97.5202V216.824C97.5202 216.248 97.3935 215.833 97.1401 215.58C96.8867 215.326 96.4605 215.199 95.8615 215.199C95.3893 215.199 94.9055 215.274 94.4102 215.424C93.9149 215.562 93.4138 215.781 92.907 216.081L92.2849 214.612C92.5844 214.405 92.9358 214.226 93.3389 214.076C93.7536 213.915 94.1855 213.794 94.6348 213.714C95.0955 213.621 95.5275 213.575 95.9306 213.575C97.1632 213.575 98.0789 213.863 98.6779 214.439C99.2769 215.004 99.5763 215.885 99.5763 217.083V222.197H97.5548V220.849C97.359 221.322 97.048 221.696 96.6218 221.973C96.1956 222.237 95.6887 222.37 95.1013 222.37ZM95.5505 220.884C96.1149 220.884 96.5815 220.688 96.9501 220.297C97.3302 219.905 97.5202 219.41 97.5202 218.811V218.43H96.9328C95.85 218.43 95.0955 218.517 94.6693 218.69C94.2547 218.851 94.0473 219.15 94.0473 219.588C94.0473 219.968 94.1798 220.279 94.4447 220.521C94.7096 220.763 95.0783 220.884 95.5505 220.884ZM102.114 222.197V213.748H104.222V215.234C104.637 214.232 105.524 213.679 106.883 213.575L107.539 213.523L107.678 215.355L106.434 215.476C105.017 215.614 104.308 216.34 104.308 217.653V222.197H102.114Z" fill="white"/>
<path d="M341.581 460.595V449.323H337.02V447.306H348.555V449.323H343.994V460.595H341.581ZM350.084 449.398V447.099H352.722V449.398H350.084ZM350.234 460.595V451.377H352.591V460.595H350.234ZM355.453 460.595V451.377H357.753V452.791C358.029 452.288 358.413 451.899 358.903 451.622C359.393 451.333 359.958 451.189 360.599 451.189C361.981 451.189 362.886 451.792 363.313 452.998C363.602 452.433 364.017 451.993 364.557 451.679C365.098 451.352 365.714 451.189 366.405 451.189C368.478 451.189 369.515 452.452 369.515 454.978V460.595H367.159V455.072C367.159 454.368 367.039 453.853 366.8 453.526C366.574 453.2 366.185 453.036 365.632 453.036C365.016 453.036 364.532 453.256 364.18 453.696C363.829 454.123 363.653 454.72 363.653 455.487V460.595H361.297V455.072C361.297 454.368 361.177 453.853 360.938 453.526C360.712 453.2 360.329 453.036 359.789 453.036C359.173 453.036 358.689 453.256 358.337 453.696C357.985 454.123 357.81 454.72 357.81 455.487V460.595H355.453ZM376.865 460.783C375.822 460.783 374.923 460.588 374.17 460.199C373.416 459.809 372.831 459.256 372.417 458.54C372.014 457.824 371.813 456.976 371.813 455.995C371.813 455.04 372.008 454.205 372.398 453.489C372.8 452.772 373.346 452.213 374.038 451.811C374.741 451.396 375.539 451.189 376.431 451.189C377.738 451.189 378.769 451.604 379.523 452.433C380.289 453.262 380.672 454.393 380.672 455.826V456.523H374.075C374.251 458.169 375.194 458.992 376.903 458.992C377.418 458.992 377.933 458.917 378.448 458.766C378.963 458.603 379.435 458.352 379.862 458.012L380.522 459.596C380.082 459.96 379.529 460.249 378.863 460.463C378.197 460.676 377.531 460.783 376.865 460.783ZM376.526 452.791C375.835 452.791 375.275 453.005 374.848 453.432C374.421 453.859 374.163 454.437 374.075 455.166H378.712C378.662 454.4 378.448 453.815 378.071 453.413C377.707 452.998 377.192 452.791 376.526 452.791ZM386.12 460.783C385.026 460.783 384.216 460.488 383.688 459.897C383.173 459.294 382.915 458.414 382.915 457.258V447.306H385.271V457.145C385.271 458.276 385.749 458.842 386.704 458.842C386.842 458.842 386.98 458.835 387.119 458.823C387.257 458.81 387.389 458.785 387.514 458.747L387.477 460.613C387.024 460.727 386.572 460.783 386.12 460.783ZM389.161 449.398V447.099H391.799V449.398H389.161ZM389.311 460.595V451.377H391.668V460.595H389.311ZM394.493 460.595V451.377H396.792V452.81C397.106 452.282 397.527 451.88 398.055 451.604C398.595 451.327 399.199 451.189 399.865 451.189C402.039 451.189 403.126 452.452 403.126 454.978V460.595H400.769V455.091C400.769 454.374 400.631 453.853 400.355 453.526C400.091 453.2 399.676 453.036 399.111 453.036C398.42 453.036 397.867 453.256 397.452 453.696C397.05 454.123 396.849 454.695 396.849 455.411V460.595H394.493ZM410.438 460.783C409.395 460.783 408.497 460.588 407.743 460.199C406.989 459.809 406.404 459.256 405.99 458.54C405.588 457.824 405.387 456.976 405.387 455.995C405.387 455.04 405.581 454.205 405.971 453.489C406.373 452.772 406.92 452.213 407.611 451.811C408.315 451.396 409.112 451.189 410.005 451.189C411.312 451.189 412.342 451.604 413.096 452.433C413.862 453.262 414.246 454.393 414.246 455.826V456.523H407.649C407.824 458.169 408.767 458.992 410.476 458.992C410.991 458.992 411.506 458.917 412.021 458.766C412.537 458.603 413.008 458.352 413.435 458.012L414.095 459.596C413.655 459.96 413.102 460.249 412.436 460.463C411.77 460.676 411.104 460.783 410.438 460.783ZM410.099 452.791C409.408 452.791 408.849 453.005 408.421 453.432C407.994 453.859 407.736 454.437 407.649 455.166H412.285C412.235 454.4 412.021 453.815 411.645 453.413C411.28 452.998 410.765 452.791 410.099 452.791Z" fill="white"/>
<g clip-path="url(#clip1_141_1153)">
<path d="M60.8662 152.362C60.0916 152.362 59.4637 152.99 59.4637 153.765V156.57H62.2686V153.765C62.2686 152.99 61.6407 152.362 60.8662 152.362Z" fill="white"/>
<path d="M80.5005 152.362C79.7259 152.362 79.098 152.99 79.098 153.765V156.57H81.9029V153.765C81.903 152.99 81.2751 152.362 80.5005 152.362Z" fill="white"/>
<path d="M86.1106 156.57H81.9033V162.18C81.9033 162.954 81.2754 163.582 80.5008 163.582C79.7262 163.582 79.0983 162.954 79.0983 162.18V156.57H62.2689V162.18C62.2689 162.954 61.641 163.582 60.8664 163.582C60.0918 163.582 59.4639 162.954 59.4639 162.18V156.57H55.2566C52.933 156.57 51.0493 158.454 51.0493 160.777V187.424C51.0493 189.748 52.933 191.631 55.2566 191.631H86.1106C88.4343 191.631 90.318 189.748 90.318 187.424V160.777C90.318 158.454 88.4343 156.57 86.1106 156.57ZM87.513 187.424C87.513 188.199 86.8851 188.827 86.1105 188.827H55.2566C54.4821 188.827 53.8542 188.199 53.8542 187.424V169.192H87.513V187.424Z" fill="white"/>
<path d="M62.2689 171.997H59.464C58.6894 171.997 58.0615 172.625 58.0615 173.399C58.0615 174.174 58.6894 174.802 59.464 174.802H62.2689C63.0434 174.802 63.6713 174.174 63.6713 173.399C63.6713 172.625 63.0434 171.997 62.2689 171.997Z" fill="white"/>
<path d="M72.0861 171.997H69.2812C68.5066 171.997 67.8787 172.625 67.8787 173.399C67.8787 174.174 68.5066 174.802 69.2812 174.802H72.0861C72.8606 174.802 73.4885 174.174 73.4885 173.399C73.4885 172.625 72.8606 171.997 72.0861 171.997Z" fill="white"/>
<path d="M81.9033 171.997H79.0984C78.3238 171.997 77.6959 172.625 77.6959 173.399C77.6959 174.174 78.3238 174.802 79.0984 174.802H81.9033C82.6778 174.802 83.3057 174.174 83.3057 173.399C83.3057 172.625 82.6778 171.997 81.9033 171.997Z" fill="white"/>
<path d="M62.2689 177.607H59.464C58.6894 177.607 58.0615 178.234 58.0615 179.009C58.0615 179.784 58.6894 180.411 59.464 180.411H62.2689C63.0434 180.411 63.6713 179.784 63.6713 179.009C63.6713 178.234 63.0434 177.607 62.2689 177.607Z" fill="white"/>
<path d="M72.0861 177.607H69.2812C68.5066 177.607 67.8787 178.234 67.8787 179.009C67.8787 179.784 68.5066 180.411 69.2812 180.411H72.0861C72.8606 180.411 73.4885 179.784 73.4885 179.009C73.4885 178.234 72.8606 177.607 72.0861 177.607Z" fill="white"/>
<path d="M81.9033 177.607H79.0984C78.3238 177.607 77.6959 178.234 77.6959 179.009C77.6959 179.784 78.3238 180.411 79.0984 180.411H81.9033C82.6778 180.411 83.3057 179.784 83.3057 179.009C83.3057 178.234 82.6778 177.607 81.9033 177.607Z" fill="white"/>
<path d="M62.269 183.217H59.4641C58.6896 183.217 58.0617 183.845 58.0617 184.619C58.0617 185.394 58.6896 186.022 59.4641 186.022H62.269C63.0436 186.022 63.6715 185.394 63.6715 184.619C63.6715 183.845 63.0436 183.217 62.269 183.217Z" fill="white"/>
<path d="M72.0862 183.217H69.2813C68.5067 183.217 67.8788 183.845 67.8788 184.619C67.8788 185.394 68.5067 186.022 69.2813 186.022H72.0862C72.8608 186.022 73.4887 185.394 73.4887 184.619C73.4887 183.845 72.8608 183.217 72.0862 183.217Z" fill="white"/>
<path d="M81.9034 183.217H79.0985C78.3239 183.217 77.696 183.845 77.696 184.619C77.696 185.394 78.3239 186.022 79.0985 186.022H81.9034C82.6779 186.022 83.3058 185.394 83.3058 184.619C83.3058 183.845 82.6779 183.217 81.9034 183.217Z" fill="white"/>
</g>
<g clip-path="url(#clip2_141_1153)">
<path d="M376.194 373.052C361.036 373.052 348.706 385.383 348.706 400.541C348.706 415.698 361.036 428.029 376.194 428.029C391.351 428.029 403.682 415.698 403.682 400.541C403.682 385.383 391.351 373.052 376.194 373.052ZM389.267 414.759C388.82 415.205 388.234 415.43 387.647 415.43C387.061 415.43 386.474 415.205 386.028 414.759L374.575 403.305C374.144 402.877 373.903 402.295 373.903 401.686V386.797C373.903 385.53 374.929 384.506 376.194 384.506C377.459 384.506 378.484 385.53 378.484 386.797V400.738L389.267 411.52C390.162 412.416 390.162 413.863 389.267 414.759Z" fill="white"/>
</g>
<defs>
<clipPath id="clip0_141_1153">
<rect width="62.8299" height="62.8299" fill="white" transform="translate(376.194 32.2003)"/>
</clipPath>
<clipPath id="clip1_141_1153">
<rect width="39.2687" height="39.2687" fill="white" transform="translate(51.0493 152.362)"/>
</clipPath>
<clipPath id="clip2_141_1153">
<rect width="54.9762" height="54.9762" fill="white" transform="translate(348.706 373.052)"/>
</clipPath>
</defs>
</svg>
