<svg width="113" height="30" viewBox="0 0 113 30" fill="none" xmlns="http://www.w3.org/2000/svg">
<path d="M24.6472 29.5406H5.47089C4.16326 29.5366 2.91066 29.0154 1.98602 28.0908C1.06139 27.1662 0.539784 25.9132 0.535828 24.6056V5.42961C0.540048 4.12216 1.06142 2.86947 1.98602 1.94505C2.91063 1.02063 4.16343 0.499561 5.47089 0.495605H24.6472C25.9545 0.499562 27.2071 1.02067 28.1315 1.94511C29.056 2.86956 29.5773 4.12225 29.5812 5.42961V24.6056C29.5822 25.2538 29.4548 25.8958 29.2072 26.4949C28.9596 27.0939 28.5962 27.6382 28.1379 28.0965C27.6795 28.5549 27.1354 28.9183 26.5363 29.1659C25.9373 29.4135 25.2954 29.5405 24.6472 29.5396" fill="#8989A2"/>
<path d="M24.6461 0.478668H15.0582V15.0007H29.5802V5.41266C29.5791 4.10414 29.0586 2.84952 28.1334 1.92426C27.2081 0.998993 25.9536 0.47872 24.6451 0.477661" fill="#A0A0BD"/>
<path d="M15.0582 29.5407H24.6461C25.9537 29.5368 27.2068 29.0155 28.1314 28.0909C29.0561 27.1663 29.5772 25.9133 29.5811 24.6057V15.0177H15.0592L15.0582 29.5407Z" fill="#BCBCD8"/>
<path d="M55.0462 19.0826C55.0992 19.0835 55.1512 19.0951 55.1996 19.1168C55.2479 19.1384 55.2912 19.1697 55.327 19.2087L56.0643 20.0137C55.4959 20.6734 54.7888 21.1999 53.994 21.5557C53.067 21.9471 52.0668 22.1356 51.0609 22.1086C50.1268 22.1217 49.2002 21.9451 48.3363 21.5897C47.5449 21.2599 46.8339 20.7636 46.2513 20.1347C45.6593 19.4836 45.2039 18.7201 44.9129 17.8897C44.5868 16.9649 44.4256 15.9901 44.4369 15.0097C44.4255 14.0262 44.5987 13.0494 44.9471 12.1297C45.2654 11.29 45.7522 10.5243 46.3773 9.87966C47.003 9.24503 47.754 8.74809 48.5829 8.42066C49.4858 8.0662 50.4493 7.88994 51.4193 7.90165C52.3233 7.87958 53.2221 8.04118 54.0619 8.37665C54.7912 8.68614 55.4597 9.12295 56.036 9.66666L55.4251 10.5297C55.3829 10.5913 55.3302 10.6454 55.2699 10.6897C55.1945 10.7364 55.1064 10.7585 55.0179 10.7527C54.9218 10.7489 54.8293 10.7169 54.7513 10.6607C54.6573 10.5987 54.5453 10.5237 54.4173 10.4327C54.2893 10.3417 54.1353 10.2457 53.9603 10.1417C53.7624 10.0271 53.5548 9.92969 53.3402 9.85065C53.0691 9.75139 52.7901 9.67513 52.5062 9.62266C52.1449 9.55741 51.7781 9.52661 51.411 9.53066C50.7117 9.52215 50.0177 9.65232 49.369 9.91366C48.764 10.1592 48.2184 10.5311 47.7689 11.0047C47.3071 11.5026 46.9525 12.0901 46.7269 12.7307C46.4691 13.4624 46.3424 14.2339 46.3529 15.0097C46.3404 15.7983 46.467 16.583 46.7269 17.3277C46.9498 17.9629 47.2962 18.5477 47.7459 19.0487C48.17 19.5136 48.6917 19.8792 49.2733 20.1197C49.8756 20.3682 50.5216 20.4937 51.1732 20.4887C51.5461 20.4912 51.9185 20.4668 52.2879 20.4157C52.6007 20.3715 52.908 20.2951 53.2049 20.1877C53.4807 20.087 53.7442 19.9551 53.9901 19.7947C54.2482 19.6246 54.4928 19.4351 54.722 19.2277C54.8083 19.1408 54.924 19.0892 55.0462 19.0826Z" fill="#8989A2"/>
<path d="M60.1844 7.6687V21.9527H58.4588V7.6687H60.1844Z" fill="#8989A2"/>
<path d="M67.12 11.9747C67.6775 11.9704 68.2305 12.0722 68.7499 12.2747C69.2356 12.4642 69.6754 12.755 70.04 13.1277C70.4159 13.5225 70.7052 13.9915 70.8891 14.5047C71.0995 15.1042 71.2009 15.7365 71.1889 16.3717C71.2052 16.5571 71.1754 16.7437 71.102 16.9147C71.0634 16.964 71.0128 17.0024 70.955 17.0262C70.8972 17.0501 70.834 17.0585 70.7719 17.0507H64.2353C64.2368 17.6 64.3218 18.1459 64.4872 18.6697C64.6221 19.0917 64.8397 19.4823 65.1278 19.8187C65.3924 20.1215 65.725 20.3576 66.0981 20.5077C66.4993 20.6646 66.927 20.742 67.3578 20.7357C67.737 20.7435 68.1151 20.6929 68.4789 20.5857C68.757 20.4998 69.0277 20.3911 69.288 20.2607C69.4829 20.1625 69.6724 20.054 69.8559 19.9357C69.9696 19.8495 70.1057 19.7975 70.248 19.7857C70.3126 19.783 70.3771 19.7967 70.435 19.8255C70.4929 19.8544 70.5423 19.8975 70.579 19.9507L71.0629 20.5807C70.8444 20.8441 70.5863 21.0716 70.2973 21.2547C69.9979 21.4466 69.6778 21.6043 69.3432 21.7247C69.0011 21.8481 68.6485 21.9404 68.29 22.0007C67.9345 22.0616 67.5749 22.0924 67.2143 22.0927C66.5727 22.0995 65.9353 21.9827 65.3378 21.7487C64.7752 21.5256 64.2687 21.1815 63.8539 20.7407C63.4189 20.2661 63.0871 19.7063 62.8798 19.0967C62.6358 18.3722 62.5181 17.6112 62.5312 16.8467C62.5257 16.1934 62.6321 15.544 62.8461 14.9267C63.0419 14.3556 63.3501 13.8295 63.7528 13.3797C64.1548 12.9374 64.6476 12.5868 65.1972 12.3517C65.805 12.0937 66.4598 11.9653 67.12 11.9747ZM67.1591 13.2457C66.7992 13.2258 66.4389 13.2796 66.1005 13.4037C65.7621 13.5279 65.4525 13.7198 65.1908 13.9677C64.6807 14.5177 64.3672 15.2208 64.2983 15.9677H69.642C69.646 15.5946 69.5902 15.2233 69.477 14.8677C69.3753 14.5502 69.2104 14.2567 68.9921 14.0047C68.777 13.7614 68.5099 13.5694 68.2108 13.4427C67.8774 13.3058 67.5195 13.2387 67.1591 13.2457Z" fill="#8989A2"/>
<path d="M80.6066 21.9529H79.8395C79.6999 21.9586 79.5612 21.9319 79.4337 21.875C79.3768 21.8396 79.3288 21.7912 79.2941 21.7339C79.2593 21.6765 79.2385 21.6118 79.2335 21.545L79.0407 20.6329C78.782 20.8656 78.5298 21.0743 78.2838 21.2589C78.0421 21.4406 77.7816 21.5964 77.5075 21.724C77.2304 21.8522 76.9398 21.9481 76.6408 22.0099C76.3041 22.0785 75.9613 22.112 75.6178 22.11C75.2546 22.1124 74.893 22.058 74.5465 21.9489C74.2273 21.8493 73.9322 21.6853 73.6788 21.4669C73.4256 21.243 73.2247 20.9657 73.0914 20.655C72.9381 20.2868 72.8641 19.8906 72.8737 19.4919C72.8755 19.0951 72.986 18.7063 73.1935 18.3679C73.4504 17.9658 73.8058 17.6358 74.2257 17.409C74.8106 17.089 75.4395 16.8578 76.0924 16.7229C77.0201 16.5286 77.967 16.4387 78.9147 16.455V15.6839C78.9587 15.064 78.7852 14.4481 78.4244 13.942C78.2439 13.7394 78.0195 13.5809 77.7682 13.4786C77.5168 13.3763 77.2454 13.333 76.9747 13.3519C76.6141 13.3423 76.2545 13.3965 75.9127 13.5119C75.652 13.6054 75.4016 13.7257 75.1657 13.8709C74.9557 14.0043 74.7747 14.1239 74.6227 14.2299C74.493 14.3288 74.3355 14.3847 74.1725 14.39C74.0633 14.3925 73.9565 14.3603 73.8668 14.2979C73.781 14.2388 73.7098 14.1608 73.6588 14.0699L73.3468 13.517C73.8527 13.0184 74.4484 12.6204 75.1027 12.3439C75.7653 12.0786 76.4739 11.9467 77.1876 11.9559C77.6889 11.9468 78.1867 12.0389 78.6515 12.2269C79.0619 12.3964 79.4298 12.6546 79.7286 12.983C80.0283 13.3232 80.2527 13.7229 80.3868 14.1559C80.5408 14.6453 80.616 15.156 80.6105 15.6689L80.6066 21.9529ZM76.1266 20.896C76.4073 20.8987 76.6872 20.8678 76.9606 20.804C77.2076 20.7447 77.4468 20.6567 77.6735 20.5419C77.9004 20.4264 78.1153 20.2884 78.3146 20.1299C78.5277 19.9604 78.7283 19.7756 78.9147 19.5769V17.5499C78.2359 17.5407 77.5578 17.5913 76.8878 17.7009C76.4208 17.7755 75.9645 17.9082 75.5304 18.0959C75.2313 18.2196 74.9692 18.4179 74.7687 18.672C74.612 18.887 74.5286 19.1469 74.5314 19.4129C74.5257 19.6436 74.5691 19.8729 74.6578 20.086C74.734 20.2644 74.8502 20.4229 74.9977 20.549C75.1435 20.6715 75.3141 20.7612 75.4977 20.812C75.7021 20.8691 75.9134 20.8974 76.1256 20.896H76.1266Z" fill="#8989A2"/>
<path d="M83.2264 21.9527V12.1297H84.2156C84.3538 12.115 84.4922 12.1532 84.6033 12.2367C84.6888 12.3417 84.7398 12.4706 84.7493 12.6057L84.8655 14.1377C85.1537 13.5165 85.5799 12.9693 86.1116 12.5377C86.6089 12.152 87.2231 11.9484 87.8523 11.9607C88.101 11.9578 88.3493 11.9887 88.5896 12.0527C88.8035 12.1119 89.0086 12.1983 89.2005 12.3097L88.9773 13.5997C88.9652 13.6696 88.9285 13.7327 88.8733 13.7773C88.8181 13.8218 88.7484 13.8447 88.6775 13.8417C88.5348 13.8311 88.3944 13.8001 88.2605 13.7497C88.0047 13.6795 87.7395 13.6485 87.4744 13.6577C86.9245 13.6397 86.3877 13.8264 85.9676 14.1817C85.5147 14.6022 85.1674 15.1237 84.9544 15.7037V21.9587L83.2264 21.9527Z" fill="#8989A2"/>
<path d="M91.1014 21.9527V7.6687H92.8362V13.5457C93.2302 13.0845 93.7044 12.6986 94.2361 12.4067C94.7927 12.1116 95.4153 11.9629 96.0452 11.9747C96.5761 11.9669 97.1023 12.0762 97.5862 12.2947C98.0501 12.5116 98.4537 12.8397 98.7605 13.2497C99.1069 13.7213 99.36 14.2544 99.5071 14.8207C99.6919 15.5248 99.7803 16.2508 99.7693 16.9787C99.7752 17.6636 99.6771 18.3453 99.4783 19.0007C99.3033 19.5885 99.0188 20.1378 98.6394 20.6197C98.2778 21.0723 97.8211 21.4396 97.3015 21.6957C96.747 21.9638 96.1371 22.0984 95.5213 22.0887C94.9609 22.1057 94.4057 21.9786 93.9085 21.7197C93.4531 21.4635 93.0574 21.113 92.7483 20.6917L92.6614 21.5837C92.6498 21.691 92.5965 21.7895 92.5135 21.8584C92.4304 21.9273 92.3242 21.9611 92.2166 21.9527H91.1014ZM95.4842 13.3527C94.9646 13.3414 94.4523 13.4758 94.0052 13.7407C93.5498 14.0303 93.1535 14.4036 92.8372 14.8407V19.5927C93.0984 19.9762 93.454 20.2861 93.8694 20.4927C94.2673 20.6714 94.6995 20.7608 95.1355 20.7547C95.5411 20.7766 95.9457 20.6988 96.3142 20.5282C96.6828 20.3575 97.0037 20.0992 97.2493 19.7757C97.7901 18.9487 98.0485 17.9689 97.9861 16.9827C97.9954 16.4282 97.9384 15.8746 97.8162 15.3337C97.7271 14.929 97.561 14.5453 97.3265 14.2037C97.1282 13.9214 96.8567 13.6985 96.5413 13.5587C96.206 13.4163 95.8445 13.3458 95.4803 13.3517L95.4842 13.3527Z" fill="#8989A2"/>
<path d="M104.191 9.05096C104.193 9.2131 104.158 9.37366 104.091 9.52096C104.023 9.66495 103.932 9.79622 103.82 9.90896C103.707 10.0221 103.573 10.1127 103.427 10.176C103.277 10.242 103.114 10.2761 102.95 10.276C102.788 10.2766 102.628 10.2425 102.481 10.176C102.336 10.1121 102.204 10.0216 102.093 9.90896C101.98 9.79744 101.889 9.66585 101.824 9.52096C101.758 9.3731 101.724 9.21292 101.724 9.05096C101.725 8.88583 101.759 8.72253 101.824 8.57096C101.887 8.42147 101.978 8.28561 102.093 8.17097C102.204 8.05852 102.336 7.96796 102.481 7.90397C102.628 7.8375 102.788 7.8034 102.95 7.80396C103.114 7.80397 103.277 7.83802 103.427 7.90397C103.573 7.96737 103.707 8.05796 103.82 8.17097C103.933 8.28681 104.025 8.42233 104.091 8.57096C104.158 8.72198 104.192 8.88565 104.191 9.05096ZM103.804 12.135V21.958H102.075V12.135H103.804Z" fill="#8989A2"/>
<path d="M109.825 22.1079C109.498 22.1294 109.17 22.0826 108.862 21.9708C108.554 21.8589 108.273 21.6842 108.036 21.4579C107.588 20.941 107.363 20.2681 107.41 19.5859V13.5739H106.227C106.131 13.5768 106.037 13.544 105.964 13.4819C105.927 13.445 105.898 13.4002 105.879 13.3507C105.861 13.3013 105.854 13.2484 105.858 13.1959V12.5079L107.467 12.3079L107.868 9.27293C107.878 9.18049 107.923 9.09542 107.994 9.03492C108.07 8.97188 108.166 8.93912 108.265 8.94292H109.139V12.3279H111.952V13.5789H109.14V19.4789C109.126 19.6447 109.146 19.8114 109.197 19.9695C109.249 20.1276 109.331 20.2739 109.44 20.3999C109.542 20.5002 109.663 20.5786 109.796 20.6301C109.93 20.6817 110.072 20.7055 110.215 20.6999C110.375 20.7033 110.534 20.6786 110.685 20.6269C110.804 20.5847 110.919 20.5311 111.028 20.4669C111.126 20.4083 111.208 20.3549 111.275 20.3069C111.327 20.2649 111.39 20.2395 111.456 20.2339C111.507 20.2383 111.556 20.2558 111.599 20.2846C111.641 20.3135 111.675 20.3529 111.698 20.3989L112.198 21.2229C111.886 21.5102 111.521 21.7329 111.123 21.8779C110.707 22.0325 110.268 22.1104 109.825 22.1079Z" fill="#8989A2"/>
</svg>
