<svg width="14" height="14" viewBox="0 0 14 14" fill="none" xmlns="http://www.w3.org/2000/svg">
<path d="M0.333252 4.22226H3.11103V13.6667H0.333252V4.22226ZM1.71381 3.11115H1.69825C0.869363 3.11115 0.333252 2.49337 0.333252 1.72171C0.333252 0.933374 0.88603 0.333374 1.72992 0.333374C2.57492 0.333374 3.09547 0.933374 3.11103 1.72171C3.11103 2.49282 2.57492 3.11115 1.71381 3.11115ZM13.6666 13.6667H10.8888V8.61171C10.8888 7.3906 10.2083 6.55726 9.11547 6.55726C8.28159 6.55726 7.83047 7.11949 7.61158 7.66282C7.53158 7.85726 7.55547 8.39504 7.55547 8.66671V13.6667H4.7777V4.22226H7.55547V5.6756C7.95603 5.0556 8.58325 4.22226 10.1877 4.22226C12.1755 4.22226 13.666 5.47226 13.666 8.26337L13.6666 13.6667Z" fill="white"/>
</svg>
