<svg width="70" height="70" fill="none" xmlns="http://www.w3.org/2000/svg"><path d="M60 0H10C4.477 0 0 4.477 0 10v50c0 5.523 4.477 10 10 10h50c5.523 0 10-4.477 10-10V10c0-5.523-4.477-10-10-10z" fill="#F3FCF7"/><path d="M20 35c0-8.284 6.716-15 15-15 8.284 0 15 6.716 15 15 0 8.284-6.716 15-15 15-8.284 0-15-6.716-15-15z" fill="#3A76BF"/><path d="M35 35h-1a1 1 0 0 0 .293.707L35 35zm0 14c-7.732 0-14-6.268-14-14h-2c0 8.837 7.163 16 16 16v-2zm14-14c0 7.732-6.268 14-14 14v2c8.837 0 16-7.163 16-16h-2zM35 21c7.732 0 14 6.268 14 14h2c0-8.837-7.163-16-16-16v2zm0-2c-8.837 0-16 7.163-16 16h2c0-7.732 6.268-14 14-14v-2zm-1 6.357V35h2v-9.643h-2zm.293 10.35 6.428 6.429 1.415-1.415-6.429-6.428-1.414 1.414z" fill="#F3FCF7"/></svg>