<svg width="170" height="50" viewBox="0 0 170 50" fill="none" xmlns="http://www.w3.org/2000/svg">
<g clip-path="url(#clip0_2826_1850)">
<path fill-rule="evenodd" clip-rule="evenodd" d="M163.168 50H6.92222C3.47632 50 0.669922 47.182 0.669922 43.75V6.25C0.669922 2.80549 3.47632 0 6.92222 0H163.168C166.61 0 169.42 2.80549 169.42 6.25V43.75C169.42 47.182 166.61 50 163.168 50Z" fill="#403E50"/>
<path fill-rule="evenodd" clip-rule="evenodd" d="M163.168 1.00062C166.058 1.00062 168.423 3.36035 168.423 6.25V43.75C168.423 46.6397 166.073 48.9994 163.168 48.9994H6.92222C4.03201 48.9994 1.66644 46.6397 1.66644 43.75V6.25C1.66644 3.36035 4.01649 1.00062 6.92222 1.00062H163.168ZM163.168 0H6.92222C3.47632 0 0.669922 2.81796 0.669922 6.25V43.75C0.669922 47.1945 3.47632 50 6.92222 50H163.168C166.61 50 169.42 47.1945 169.42 43.75V6.25C169.42 2.81796 166.61 0 163.168 0Z" fill="white"/>
<path d="M89.5679 16.5397C88.441 16.5397 87.491 16.1438 86.7398 15.3645C85.9947 14.607 85.5787 13.5628 85.5973 12.4967C85.5973 11.3589 85.9823 10.3957 86.7398 9.63197C87.4879 8.85267 88.4379 8.45679 89.5648 8.45679C90.6792 8.45679 91.6292 8.85267 92.3929 9.63197C93.1504 10.4206 93.5353 11.3838 93.5353 12.4967C93.5229 13.6376 93.1379 14.6008 92.3929 15.3614C91.6447 16.1469 90.6948 16.5397 89.5679 16.5397ZM56.0373 16.5397C54.9352 16.5397 53.979 16.1501 53.1967 15.3801C52.4206 14.6133 52.0264 13.6438 52.0264 12.4998C52.0264 11.3558 52.4206 10.3863 53.1967 9.61951C53.9635 8.84956 54.9197 8.4599 56.0373 8.4599C56.5836 8.4599 57.1145 8.56901 57.6236 8.79033C58.1234 9.00542 58.5301 9.29843 58.8312 9.65691L58.9057 9.74731L58.0644 10.5765L57.9775 10.4736C57.5025 9.90629 56.8661 9.62886 56.0248 9.62886C55.2736 9.62886 54.6185 9.89694 54.0784 10.4269C53.5351 10.9599 53.2588 11.6582 53.2588 12.5029C53.2588 13.3477 53.5351 14.0459 54.0784 14.579C54.6185 15.1089 55.2736 15.377 56.0248 15.377C56.8258 15.377 57.4994 15.1089 58.0241 14.579C58.3345 14.2673 58.527 13.8309 58.5953 13.2791H55.8976V12.1133H59.7532L59.7687 12.2193C59.7967 12.4156 59.8246 12.6183 59.8246 12.8053C59.8246 13.8807 59.5018 14.7504 58.8623 15.3926C58.1358 16.1532 57.1859 16.5397 56.0373 16.5397ZM100.62 16.3745H99.4305L95.7891 10.5235L95.8201 11.5771V16.3714H94.6311V8.62512H95.9878L96.025 8.68434L99.4492 14.1956L99.4181 13.1451V8.62512H100.62V16.3745ZM80.6334 16.3745H79.4289V9.79095H77.3396V8.62512H82.7196V9.79095H80.6303V16.3745H80.6334ZM76.3587 16.3745H75.1572V8.62512H76.3587V16.3745ZM69.6066 16.3745H68.4052V9.79095H66.3159V8.62512H71.6958V9.79095H69.6066V16.3745ZM65.5553 16.362H60.9484V8.62512H65.5553V9.79095H62.1529V11.9169H65.2232V13.0703H62.1529V15.1962H65.5553V16.362ZM87.6214 14.5634C88.1585 15.1027 88.8104 15.3739 89.5679 15.3739C90.3471 15.3739 90.9835 15.1089 91.5143 14.5634C92.0421 14.0335 92.3091 13.3383 92.3091 12.4998C92.3091 11.6613 92.0421 10.963 91.5174 10.4362C90.9804 9.89694 90.3253 9.62574 89.571 9.62574C88.7918 9.62574 88.1554 9.8907 87.6276 10.4362C87.0999 10.9661 86.8329 11.6613 86.8329 12.4998C86.8329 13.3383 87.0968 14.0366 87.6214 14.5634Z" fill="white"/>
<path fill-rule="evenodd" clip-rule="evenodd" d="M85.4857 27.1945C82.552 27.1945 80.174 29.4296 80.174 32.5125C80.174 35.5673 82.5675 37.8304 85.4857 37.8304C88.4194 37.8304 90.7974 35.5798 90.7974 32.5125C90.7974 29.4296 88.4194 27.1945 85.4857 27.1945ZM85.4857 35.7232C83.8807 35.7232 82.4992 34.389 82.4992 32.5C82.4992 30.5829 83.8838 29.2768 85.4857 29.2768C87.0907 29.2768 88.4721 30.5829 88.4721 32.5C88.4753 34.4015 87.0907 35.7232 85.4857 35.7232ZM73.8969 27.1945C70.9632 27.1945 68.5852 29.4296 68.5852 32.5125C68.5852 35.5673 70.9787 37.8304 73.8969 37.8304C76.8306 37.8304 79.2085 35.5798 79.2085 32.5125C79.2085 29.4296 76.8275 27.1945 73.8969 27.1945ZM73.8969 35.7232C72.2919 35.7232 70.9104 34.389 70.9104 32.5C70.9104 30.5829 72.295 29.2768 73.8969 29.2768C75.5019 29.2768 76.8833 30.5829 76.8833 32.5C76.8833 34.4015 75.5019 35.7232 73.8969 35.7232ZM60.107 28.8186V31.0692H65.487C65.3225 32.3317 64.9065 33.2637 64.2701 33.9027C63.4815 34.6945 62.2646 35.5549 60.1195 35.5549C56.8132 35.5549 54.2273 32.8741 54.2273 29.5542C54.2273 26.2344 56.8132 23.5536 60.1195 23.5536C61.9045 23.5536 63.2052 24.2612 64.1707 25.1652L65.7602 23.5692C64.4191 22.2787 62.634 21.2905 60.1319 21.2905C55.5963 21.2905 51.7903 25 51.7903 29.5418C51.7903 34.096 55.5932 37.793 60.1319 37.793C62.5813 37.793 64.4191 36.9888 65.8719 35.4738C67.3528 33.9869 67.8215 31.889 67.8215 30.1964C67.8215 29.6696 67.7812 29.1958 67.6974 28.7936H60.1039C60.107 28.7905 60.107 28.8186 60.107 28.8186ZM116.511 30.5705C116.067 29.3766 114.726 27.182 111.976 27.182C109.25 27.182 106.984 29.336 106.984 32.5C106.984 35.4863 109.225 37.818 112.24 37.818C114.661 37.818 116.07 36.331 116.651 35.4582L114.854 34.2488C114.257 35.1372 113.429 35.7201 112.252 35.7201C111.063 35.7201 110.231 35.1777 109.678 34.1085L116.76 31.1627C116.76 31.1658 116.511 30.5705 116.511 30.5705ZM109.29 32.3473C109.235 30.293 110.88 29.2488 112.056 29.2488C112.985 29.2488 113.758 29.707 114.022 30.3741L109.29 32.3473ZM103.538 37.5H105.863V21.8766H103.538V37.5ZM99.7195 28.3759H99.6356C99.111 27.7494 98.1145 27.182 96.8417 27.182C94.1998 27.182 91.7659 29.5168 91.7659 32.5156C91.7659 35.5019 94.1874 37.8086 96.8417 37.8086C98.099 37.8086 99.111 37.2382 99.6356 36.5991H99.7195V37.3628C99.7195 39.3921 98.6391 40.4863 96.8975 40.4863C95.4726 40.4863 94.5879 39.4576 94.2277 38.5973L92.2068 39.4451C92.7873 40.8479 94.3364 42.5842 96.8944 42.5842C99.6201 42.5842 101.93 40.9726 101.93 37.0418V27.5H99.7319V28.3759C99.735 28.3759 99.7195 28.3759 99.7195 28.3759ZM97.0497 35.7232C95.4447 35.7232 94.1036 34.3766 94.1036 32.5156C94.1036 30.639 95.4447 29.2799 97.0497 29.2799C98.6391 29.2799 99.8716 30.6546 99.8716 32.5156C99.8871 34.3766 98.6422 35.7232 97.0497 35.7232ZM127.398 21.8766H121.838V37.5H124.164V31.5835H127.402C129.975 31.5835 132.505 29.7101 132.505 26.7363C132.505 23.7625 129.984 21.8766 127.398 21.8766ZM127.467 29.4015H124.161V24.0399H127.467C129.208 24.0399 130.192 25.4832 130.192 26.7207C130.192 27.9458 129.196 29.4015 127.467 29.4015ZM141.825 27.1665C140.136 27.1665 138.394 27.9177 137.674 29.5542L139.735 30.4146C140.179 29.5542 140.993 29.2612 141.853 29.2612C143.057 29.2612 144.274 29.9844 144.302 31.2749V31.4402C143.886 31.2032 142.973 30.8416 141.881 30.8416C139.655 30.8416 137.398 32.0636 137.398 34.3547C137.398 36.4526 139.223 37.7993 141.257 37.7993C142.818 37.7993 143.678 37.0916 144.215 36.2718H144.299V37.4813H146.54V31.4963C146.54 28.7095 144.479 27.1665 141.825 27.1665ZM141.533 35.7232C140.772 35.7232 139.708 35.3491 139.708 34.389C139.708 33.1796 141.036 32.7213 142.169 32.7213C143.194 32.7213 143.678 32.9426 144.287 33.2481C144.119 34.6509 142.939 35.7107 141.533 35.7232ZM154.717 27.5L152.048 34.2768H151.964L149.198 27.5H146.696L150.846 36.9732L148.481 42.2382H150.902L157.288 27.5H154.717ZM133.787 37.5H136.113V21.8766H133.787V37.5Z" fill="white"/>
<path fill-rule="evenodd" clip-rule="evenodd" d="M13.6589 9.41693C13.2988 9.80658 13.0908 10.402 13.0908 11.1813V38.8215C13.0908 39.6008 13.2988 40.1962 13.6713 40.5703L13.7676 40.6545L29.1903 25.1682V24.8222L13.7552 9.33276L13.6589 9.41693Z" fill="url(#paint0_linear_2826_1850)"/>
<path fill-rule="evenodd" clip-rule="evenodd" d="M34.3218 30.3461L29.1777 25.1809V24.8193L34.3218 19.6541L34.4335 19.7226L40.5182 23.1952C42.2598 24.1802 42.2598 25.8074 40.5182 26.8049L34.4335 30.2775L34.3218 30.3461Z" fill="url(#paint1_linear_2826_1850)"/>
<path fill-rule="evenodd" clip-rule="evenodd" d="M34.4335 30.2774L29.1777 25L13.6587 40.5829C14.2268 41.1939 15.1799 41.2625 16.2447 40.6671L34.4335 30.2774Z" fill="url(#paint2_linear_2826_1850)"/>
<path fill-rule="evenodd" clip-rule="evenodd" d="M34.4335 19.7226L16.2447 9.34849C15.1799 8.73752 14.2237 8.82168 13.6587 9.43265L29.1777 25L34.4335 19.7226Z" fill="url(#paint3_linear_2826_1850)"/>
<path opacity="0.2" fill-rule="evenodd" clip-rule="evenodd" d="M34.3218 30.1653L16.2571 40.4707C15.2482 41.0536 14.3479 41.0131 13.7674 40.4832L13.6711 40.5798L13.7674 40.664C14.3479 41.1908 15.2482 41.2344 16.2571 40.6515L34.446 30.2775L34.3218 30.1653Z" fill="#403E50"/>
<path opacity="0.12" fill-rule="evenodd" clip-rule="evenodd" d="M40.5183 26.6241L34.3064 30.1652L34.4182 30.2774L40.5028 26.8049C41.3752 26.3061 41.8036 25.6515 41.8036 25C41.7508 25.5985 41.3069 26.1658 40.5183 26.6241Z" fill="#403E50"/>
<path opacity="0.25" fill-rule="evenodd" clip-rule="evenodd" d="M16.2449 9.52936L40.5184 23.376C41.3069 23.8218 41.7508 24.4047 41.8191 25.0001C41.8191 24.3486 41.3907 23.6939 40.5184 23.1952L16.2449 9.34856C14.5033 8.34794 13.0908 9.18335 13.0908 11.1815V11.3623C13.0908 9.36103 14.5033 8.54121 16.2449 9.52936Z" fill="white"/>
</g>
<defs>
<linearGradient id="paint0_linear_2826_1850" x1="27.8069" y1="10.8831" x2="3.08894" y2="17.4422" gradientUnits="userSpaceOnUse">
<stop stop-color="#00A0FF"/>
<stop offset="0.00657" stop-color="#00A1FF"/>
<stop offset="0.2601" stop-color="#00BEFF"/>
<stop offset="0.5122" stop-color="#00D2FF"/>
<stop offset="0.7604" stop-color="#00DFFF"/>
<stop offset="1" stop-color="#00E3FF"/>
</linearGradient>
<linearGradient id="paint1_linear_2826_1850" x1="42.7894" y1="25.0001" x2="12.6673" y2="25.0001" gradientUnits="userSpaceOnUse">
<stop stop-color="#FFE000"/>
<stop offset="0.4087" stop-color="#FFBD00"/>
<stop offset="0.7754" stop-color="#FFA500"/>
<stop offset="1" stop-color="#FF9C00"/>
</linearGradient>
<linearGradient id="paint2_linear_2826_1850" x1="31.5756" y1="27.8717" x2="11.6221" y2="61.3173" gradientUnits="userSpaceOnUse">
<stop stop-color="#FF3A44"/>
<stop offset="1" stop-color="#C31162"/>
</linearGradient>
<linearGradient id="paint3_linear_2826_1850" x1="9.75084" y1="0.223476" x2="18.6529" y2="15.1608" gradientUnits="userSpaceOnUse">
<stop stop-color="#32A071"/>
<stop offset="0.0685" stop-color="#2DA771"/>
<stop offset="0.4762" stop-color="#15CF74"/>
<stop offset="0.8009" stop-color="#06E775"/>
<stop offset="1" stop-color="#00F076"/>
</linearGradient>
<clipPath id="clip0_2826_1850">
<rect width="168.75" height="50" fill="white" transform="translate(0.669922)"/>
</clipPath>
</defs>
</svg>
