<svg width="70" height="70" fill="none" xmlns="http://www.w3.org/2000/svg"><path d="M60 0H10C4.477 0 0 4.477 0 10v50c0 5.523 4.477 10 10 10h50c5.523 0 10-4.477 10-10V10c0-5.523-4.477-10-10-10z" fill="#F3FCF7"/><path fill-rule="evenodd" clip-rule="evenodd" d="M34.865 37.143a4.289 4.289 0 0 0 4.289-4.286 4.289 4.289 0 0 0-8.577 0 4.289 4.289 0 0 0 4.288 4.286z" fill="#3A76BF"/><path fill-rule="evenodd" clip-rule="evenodd" d="M47.731 32.857C47.731 43.571 37.01 50 34.865 50 32.721 50 22 43.571 22 32.857 22 25.757 27.762 20 34.865 20c7.104 0 12.866 5.758 12.866 12.857z" fill="#3A76BF"/><path clip-rule="evenodd" d="M34.865 37.143a4.289 4.289 0 0 0 4.289-4.286 4.289 4.289 0 0 0-8.577 0 4.289 4.289 0 0 0 4.288 4.286z" stroke="#F3FCF7" stroke-width="2" stroke-linecap="square"/><path clip-rule="evenodd" d="M47.731 32.857C47.731 43.571 37.01 50 34.865 50 32.721 50 22 43.571 22 32.857 22 25.757 27.762 20 34.865 20c7.104 0 12.866 5.758 12.866 12.857z" stroke="#F3FCF7" stroke-width="2" stroke-linecap="square"/></svg>