<svg width="40" height="41" viewBox="0 0 40 41" fill="none" xmlns="http://www.w3.org/2000/svg">
<rect y="0.5" width="40" height="40" rx="20" fill="white"/>
<path d="M20.0002 20.05C19.4035 20.05 18.8312 19.8129 18.4092 19.391C17.9872 18.969 17.7502 18.3967 17.7502 17.8C17.7502 17.2033 17.9872 16.631 18.4092 16.209C18.8312 15.7871 19.4035 15.55 20.0002 15.55C20.5969 15.55 21.1692 15.7871 21.5912 16.209C22.0131 16.631 22.2502 17.2033 22.2502 17.8C22.2502 18.0955 22.192 18.3881 22.0789 18.661C21.9659 18.934 21.8001 19.1821 21.5912 19.391C21.3823 19.5999 21.1342 19.7657 20.8612 19.8787C20.5883 19.9918 20.2957 20.05 20.0002 20.05ZM20.0002 11.5C18.3293 11.5 16.7269 12.1637 15.5454 13.3452C14.3639 14.5267 13.7002 16.1291 13.7002 17.8C13.7002 22.525 20.0002 29.5 20.0002 29.5C20.0002 29.5 26.3002 22.525 26.3002 17.8C26.3002 16.1291 25.6364 14.5267 24.455 13.3452C23.2735 12.1637 21.6711 11.5 20.0002 11.5Z" fill="#3A76BF"/>
</svg>
