<svg width="86" height="30" fill="none" xmlns="http://www.w3.org/2000/svg"><path fill-rule="evenodd" clip-rule="evenodd" d="M21.342 16.821a1.3 1.3 0 0 0 .224 1.287 1.457 1.457 0 0 0 1.2.264 5.706 5.706 0 0 1 2.509.017 1.58 1.58 0 0 1 .693 2.315 6.369 6.369 0 0 1-1.21 1.454 33.653 33.653 0 0 0-3.944 5.67c-.493.8-1.146 1.865-2.184 1.971a1.877 1.877 0 0 1-2.1-1.449c-.141-.979.806-1.913 1.452-2.556.454-.454.878-.922 1.3-1.41.493-.564.959-1.126 1.4-1.725.515-.7 1.37-1.846.739-2.71-.458-.637-1.432-.526-2.068-.272-.81.383-1.507.971-2.02 1.706a25.464 25.464 0 0 0-1.525 2.566 5.478 5.478 0 0 1-1.513 1.878 1.546 1.546 0 0 1-2.068-.357 2.295 2.295 0 0 1 .246-2.386 9.123 9.123 0 0 1 1.383-1.607c.78-.8 1.573-1.595 2.332-2.418.38-.422.757-.838 1.1-1.272.31-.4.779-.924.64-1.479-.26-1.045-1.912-.666-2.587-.335a8.948 8.948 0 0 0-2.485 2.11 23.288 23.288 0 0 0-2.058 2.768c-1.306 1.947-2.512 3.974-3.86 5.891-.562.8-1.232 1.767-2.26 1.972a1.792 1.792 0 0 1-2.152-1.592c-.007-.91.327-1.79.937-2.465.466-.606.943-1.204 1.43-1.792 1.3-1.573 2.61-3.148 3.944-4.683a95.182 95.182 0 0 0 3.28-4.045c.6-.794 1.214-1.575 1.766-2.4a8.284 8.284 0 0 1 1.8-2.154 1.921 1.921 0 0 1 2.236-.192c.833.646.422 1.844.076 2.628s-.678 1.77.316 2.147c.7.271 1.479.054 2.164.4a1.91 1.91 0 0 1 .875 2.258M7.477 16.885a73.673 73.673 0 0 1 5.273-6.776c1.595-1.817 3.278-3.557 4.93-5.329a3.646 3.646 0 0 0 1.13-2.366A1.579 1.579 0 0 0 17.187.726a3.257 3.257 0 0 0-2.251 1.553c-.638.817-1.185 1.7-1.758 2.557-.547.811-1.163 1.568-1.745 2.354-.641.875-1.262 1.77-1.972 2.583-.552.624-1.26 1.743-2.218 1.725a.853.853 0 0 1-.77-.572 1.27 1.27 0 0 1 .247-1.232A14.16 14.16 0 0 1 8.21 7.926a6.321 6.321 0 0 0 1.425-1.67 1.868 1.868 0 0 0-.288-1.937 1.146 1.146 0 0 0-1.161-.385c-.493.143-.833.638-1.232.912-.266.18-.821.343-.986-.054-.165-.397.328-.786.545-1.008.6-.619 1.663-1.258 1.724-2.206A1.344 1.344 0 0 0 6.377.303a4.433 4.433 0 0 0-2.083 1.814c-.466.661-1.277 1.82-.97 2.672a1.077 1.077 0 0 0 .916.666c.424.067 1.01-.165 1.383.084.845.567-.19 1.925-.572 2.465-.594.825-1.254 1.6-1.974 2.317-.754.76-1.592 1.48-2.27 2.3a1.994 1.994 0 0 0-.37 2.38 1.481 1.481 0 0 0 2.36.016c.551-.829 1.155-1.62 1.81-2.37a1.256 1.256 0 0 1 1.19-.358.853.853 0 0 1 .494 1.114 6.364 6.364 0 0 1-1.79 2.4c-.7.74-1.48 1.375-2.162 2.108a3.35 3.35 0 0 0-1.032 2.462 1.459 1.459 0 0 0 .72 1.14A2.143 2.143 0 0 0 4.41 20.9a18.408 18.408 0 0 0 2.428-3.14l.638-.876z" fill="#8989A2"/><path fill-rule="evenodd" clip-rule="evenodd" d="M25.018 4.183c-.493.513-1.04.986-1.54 1.48-.502.492-1.233 1.251-1 2.02a1.061 1.061 0 0 0 1.724.343c.57-.493 1.05-1.274 1.915-1.048a1.536 1.536 0 0 1 .887 1.908 4.075 4.075 0 0 1-1.326 1.856 11.683 11.683 0 0 0-1.573 2.006c-.355.574-.725 1.171-1.479 1.232a1.484 1.484 0 0 1-1.449-1.2A2.642 2.642 0 0 1 22 10.562c.4-.493.89-1.245.291-1.8-.65-.6-1.546-.19-2.218.1a1.42 1.42 0 0 1-1.95-.515 2 2 0 0 1 .316-2.045c.658-.947 1.536-1.725 2.218-2.667.87-1.163 1.457-3.044 3.214-2.906a2.048 2.048 0 0 1 1.658 1.233 2.14 2.14 0 0 1-.51 2.218M32.385 24.01h3.148V9.836l5.692 14.172h1.129L47.942 9.84v14.17h3.49V5.247h-4.62l-4.825 12.818-4.93-12.806h-4.672v18.75zm21.08 0h3.175V10.285h-3.175V24.01zM55.013 8.03a1.831 1.831 0 1 0-.115-3.66 1.831 1.831 0 0 0 .115 3.66zM58.67 24.01h3.175v-8.083a3.041 3.041 0 0 1 3.227-3.278c1.888 0 2.729.944 2.729 3.017v8.344h3.175v-8.628c0-3.779-1.942-5.379-4.7-5.379a4.74 4.74 0 0 0-4.437 2.465v-2.18h-3.17v13.722zm20.385.261c3.515 0 5.849-1.575 6.3-4.459h-3.064c-.247 1.336-1.232 2.1-3.148 2.1-2.361 0-3.673-1.479-3.78-4.067h10.048v-.917c0-4.908-3.07-6.927-6.48-6.927-3.907 0-6.821 2.832-6.821 7.084v.21a6.576 6.576 0 0 0 6.954 6.978l-.01-.002zm-3.648-8.553c.32-2.125 1.607-3.414 3.52-3.414 1.972 0 3.175 1.048 3.333 3.41l-6.853.004z" fill="#8989A2"/></svg>