<svg width="126" height="125" viewBox="0 0 126 125" fill="none" xmlns="http://www.w3.org/2000/svg">
<circle cx="63" cy="62.5" r="61.0062" fill="url(#paint0_linear_3096_4928)" stroke="#8279BB" stroke-width="2.0125"/>
<circle cx="62.625" cy="62.125" r="53" stroke="white" stroke-width="6"/>
<path d="M46.7901 36.186C41.5414 36.186 36.5078 38.2711 32.7964 41.9824C29.085 45.6938 27 50.7275 27 55.9761C27 57.7752 27.3238 59.5743 27.7916 61.3734H42.4723L47.042 49.2475C48.1214 46.3689 52.3673 46.0811 53.7346 49.2475L61.1829 68.5698L63.3058 63.4604C63.7736 62.273 65.033 61.3734 66.5802 61.3734H98.1724C98.6402 59.5743 98.964 57.7752 98.964 55.9761C98.964 50.7275 96.879 45.6938 93.1676 41.9824C89.4563 38.2711 84.4226 36.186 79.1739 36.186C72.4813 36.186 66.5802 39.5324 62.982 44.6058C59.3838 39.5324 53.4828 36.186 46.7901 36.186ZM30.5982 66.7707C29.6439 66.7707 28.7287 67.1498 28.0539 67.8246C27.3791 68.4994 27 69.4146 27 70.3689C27 71.3232 27.3791 72.2385 28.0539 72.9133C28.7287 73.5881 29.6439 73.9671 30.5982 73.9671H39.3778L59.3838 93.7573C62.982 96.9956 62.982 96.9956 66.5802 93.7573L86.5862 73.9671H95.3658C96.3201 73.9671 97.2353 73.5881 97.9101 72.9133C98.5849 72.2385 98.964 71.3232 98.964 70.3689C98.964 69.4146 98.5849 68.4994 97.9101 67.8246C97.2353 67.1498 96.3201 66.7707 95.3658 66.7707H68.0195L64.6732 75.0466C63.2339 78.6808 59.096 78.177 57.7646 75.1546L50.3883 55.9761L46.934 64.3599C46.3943 65.7273 45.1709 66.7707 43.5517 66.7707H30.5982Z" fill="url(#paint1_linear_3096_4928)"/>
<defs>
<linearGradient id="paint0_linear_3096_4928" x1="63" y1="2.5" x2="63" y2="122.5" gradientUnits="userSpaceOnUse">
<stop stop-color="#8279BB"/>
<stop offset="1" stop-color="#8279BB" stop-opacity="0"/>
</linearGradient>
<linearGradient id="paint1_linear_3096_4928" x1="62.982" y1="36.186" x2="94.5" y2="110.686" gradientUnits="userSpaceOnUse">
<stop stop-color="#403E50"/>
<stop offset="1" stop-color="#5C0E62" stop-opacity="0"/>
</linearGradient>
</defs>
</svg>
