<svg width="40" height="41" viewBox="0 0 40 41" fill="none" xmlns="http://www.w3.org/2000/svg">
<rect y="0.5" width="40" height="40" rx="20" fill="white"/>
<path d="M14.62 19.29C16.06 22.12 18.38 24.44 21.21 25.88L23.41 23.68C23.69 23.4 24.08 23.32 24.43 23.43C25.55 23.8 26.75 24 28 24C28.2652 24 28.5196 24.1054 28.7071 24.2929C28.8946 24.4804 29 24.7348 29 25V28.5C29 28.7652 28.8946 29.0196 28.7071 29.2071C28.5196 29.3946 28.2652 29.5 28 29.5C23.4913 29.5 19.1673 27.7089 15.9792 24.5208C12.7911 21.3327 11 17.0087 11 12.5C11 12.2348 11.1054 11.9804 11.2929 11.7929C11.4804 11.6054 11.7348 11.5 12 11.5H15.5C15.7652 11.5 16.0196 11.6054 16.2071 11.7929C16.3946 11.9804 16.5 12.2348 16.5 12.5C16.5 13.75 16.7 14.95 17.07 16.07C17.18 16.42 17.1 16.81 16.82 17.09L14.62 19.29Z" fill="#3A76BF"/>
</svg>
