<svg width="126" height="125" viewBox="0 0 126 125" fill="none" xmlns="http://www.w3.org/2000/svg">
<circle cx="63" cy="62.814" r="61.0062" fill="url(#paint0_linear_2993_993)" stroke="#8279BB" stroke-width="2.0125"/>
<mask id="path-2-outside-1_2993_993" maskUnits="userSpaceOnUse" x="9.625" y="9.43896" width="86" height="106" fill="black">
<rect fill="white" x="9.625" y="9.43896" width="86" height="106"/>
<path d="M91.3038 103.397C84.8403 107.922 77.3974 110.854 69.5837 111.952C61.7699 113.051 53.8072 112.284 46.3466 109.715C38.886 107.146 32.1392 102.848 26.658 97.1719C21.1768 91.4959 17.1167 84.6033 14.8098 77.0576C12.5028 69.5118 12.0144 61.5272 13.3846 53.7566C14.7548 45.9859 17.9446 38.6499 22.6932 32.3482C27.4419 26.0466 33.6145 20.9582 40.7064 17.4993C47.7984 14.0403 55.6083 12.3089 63.4976 12.4466L62.625 62.439L91.3038 103.397Z"/>
</mask>
<path d="M91.3038 103.397C84.8403 107.922 77.3974 110.854 69.5837 111.952C61.7699 113.051 53.8072 112.284 46.3466 109.715C38.886 107.146 32.1392 102.848 26.658 97.1719C21.1768 91.4959 17.1167 84.6033 14.8098 77.0576C12.5028 69.5118 12.0144 61.5272 13.3846 53.7566C14.7548 45.9859 17.9446 38.6499 22.6932 32.3482C27.4419 26.0466 33.6145 20.9582 40.7064 17.4993C47.7984 14.0403 55.6083 12.3089 63.4976 12.4466L62.625 62.439L91.3038 103.397Z" fill="url(#paint1_linear_2993_993)"/>
<path d="M91.3038 103.397C84.8403 107.922 77.3974 110.854 69.5837 111.952C61.7699 113.051 53.8072 112.284 46.3466 109.715C38.886 107.146 32.1392 102.848 26.658 97.1719C21.1768 91.4959 17.1167 84.6033 14.8098 77.0576C12.5028 69.5118 12.0144 61.5272 13.3846 53.7566C14.7548 45.9859 17.9446 38.6499 22.6932 32.3482C27.4419 26.0466 33.6145 20.9582 40.7064 17.4993C47.7984 14.0403 55.6083 12.3089 63.4976 12.4466L62.625 62.439L91.3038 103.397Z" stroke="white" stroke-width="6" mask="url(#path-2-outside-1_2993_993)"/>
<circle cx="62.625" cy="62.439" r="53" stroke="white" stroke-width="6"/>
<g filter="url(#filter0_d_2993_993)">
<path d="M72.432 61.356V59.292L77.456 52.3H80.736L75.856 59.292L74.352 58.844H83.104V61.356H72.432ZM78.352 63.5V61.356L78.448 58.844V56.94H81.44V63.5H78.352ZM87.6671 63.724C86.8991 63.724 86.1258 63.628 85.3471 63.436C84.5685 63.244 83.8965 62.972 83.3311 62.62L84.4671 60.236C84.9258 60.5347 85.4218 60.764 85.9551 60.924C86.4991 61.084 87.0378 61.164 87.5711 61.164C88.1045 61.164 88.5365 61.0627 88.8671 60.86C89.1978 60.6467 89.3631 60.3533 89.3631 59.98C89.3631 59.756 89.2991 59.5587 89.1711 59.388C89.0431 59.2067 88.8245 59.0733 88.5151 58.988C88.2058 58.892 87.7631 58.844 87.1871 58.844H84.1471L84.7071 52.3H91.8431V54.748H85.8271L87.4431 53.356L87.0751 57.772L85.4591 56.38H87.9391C89.0485 56.38 89.9391 56.54 90.6111 56.86C91.2831 57.1693 91.7738 57.5907 92.0831 58.124C92.3925 58.6467 92.5471 59.2387 92.5471 59.9C92.5471 60.5613 92.3711 61.1853 92.0191 61.772C91.6778 62.348 91.1498 62.8173 90.4351 63.18C89.7205 63.5427 88.7978 63.724 87.6671 63.724ZM94.9576 63.5L102.606 52.3H104.91L97.2616 63.5H94.9576ZM95.9816 58.364C95.4376 58.364 94.947 58.2413 94.5096 57.996C94.0723 57.7507 93.731 57.3987 93.4856 56.94C93.2403 56.4707 93.1176 55.9107 93.1176 55.26C93.1176 54.6093 93.2403 54.0547 93.4856 53.596C93.731 53.1373 94.0723 52.7853 94.5096 52.54C94.947 52.284 95.4376 52.156 95.9816 52.156C96.5363 52.156 97.027 52.284 97.4536 52.54C97.891 52.7853 98.2323 53.1373 98.4776 53.596C98.7336 54.0547 98.8616 54.6093 98.8616 55.26C98.8616 55.9 98.7336 56.4547 98.4776 56.924C98.2323 57.3933 97.891 57.7507 97.4536 57.996C97.027 58.2413 96.5363 58.364 95.9816 58.364ZM95.9976 56.844C96.2643 56.844 96.483 56.7213 96.6536 56.476C96.835 56.2307 96.9256 55.8253 96.9256 55.26C96.9256 54.6947 96.835 54.2893 96.6536 54.044C96.483 53.7987 96.2643 53.676 95.9976 53.676C95.731 53.676 95.5016 53.7987 95.3096 54.044C95.1283 54.2893 95.0376 54.6947 95.0376 55.26C95.0376 55.8253 95.1283 56.2307 95.3096 56.476C95.5016 56.7213 95.731 56.844 95.9976 56.844ZM103.886 63.644C103.331 63.644 102.835 63.5213 102.398 63.276C101.971 63.0307 101.635 62.6787 101.39 62.22C101.144 61.7507 101.022 61.1907 101.022 60.54C101.022 59.8893 101.144 59.3347 101.39 58.876C101.635 58.4173 101.971 58.0653 102.398 57.82C102.835 57.564 103.331 57.436 103.886 57.436C104.44 57.436 104.931 57.564 105.358 57.82C105.795 58.0653 106.136 58.4173 106.382 58.876C106.638 59.3347 106.766 59.8893 106.766 60.54C106.766 61.1907 106.638 61.7507 106.382 62.22C106.136 62.6787 105.795 63.0307 105.358 63.276C104.931 63.5213 104.44 63.644 103.886 63.644ZM103.886 62.124C104.152 62.124 104.376 62.0013 104.558 61.756C104.739 61.5107 104.83 61.1053 104.83 60.54C104.83 59.9747 104.739 59.5693 104.558 59.324C104.376 59.0787 104.152 58.956 103.886 58.956C103.63 58.956 103.406 59.0787 103.214 59.324C103.032 59.5693 102.942 59.9747 102.942 60.54C102.942 61.1053 103.032 61.5107 103.214 61.756C103.406 62.0013 103.63 62.124 103.886 62.124Z" fill="#403E50"/>
</g>
<defs>
<filter id="filter0_d_2993_993" x="68.432" y="52.156" width="42.3336" height="19.5681" filterUnits="userSpaceOnUse" color-interpolation-filters="sRGB">
<feFlood flood-opacity="0" result="BackgroundImageFix"/>
<feColorMatrix in="SourceAlpha" type="matrix" values="0 0 0 0 0 0 0 0 0 0 0 0 0 0 0 0 0 0 127 0" result="hardAlpha"/>
<feOffset dy="4"/>
<feGaussianBlur stdDeviation="2"/>
<feComposite in2="hardAlpha" operator="out"/>
<feColorMatrix type="matrix" values="0 0 0 0 0 0 0 0 0 0 0 0 0 0 0 0 0 0 0.25 0"/>
<feBlend mode="normal" in2="BackgroundImageFix" result="effect1_dropShadow_2993_993"/>
<feBlend mode="normal" in="SourceGraphic" in2="effect1_dropShadow_2993_993" result="shape"/>
</filter>
<linearGradient id="paint0_linear_2993_993" x1="63" y1="2.81396" x2="63" y2="122.814" gradientUnits="userSpaceOnUse">
<stop stop-color="#8279BB"/>
<stop offset="1" stop-color="#8279BB" stop-opacity="0"/>
</linearGradient>
<linearGradient id="paint1_linear_2993_993" x1="62.625" y1="12.439" x2="62.625" y2="112.439" gradientUnits="userSpaceOnUse">
<stop stop-color="#403E50"/>
<stop offset="1" stop-color="#5C0E62" stop-opacity="0"/>
</linearGradient>
</defs>
</svg>
