<svg width="560" height="340" viewBox="0 0 560 340" fill="none" xmlns="http://www.w3.org/2000/svg">
<g clip-path="url(#clip0_2219_1684)">
<rect width="560" height="340" fill="white"/>
<rect width="560" height="340" fill="url(#paint0_radial_2219_1684)" fill-opacity="0.63"/>
<g filter="url(#filter0_d_2219_1684)">
<rect x="234" y="141" width="91.4182" height="58.8194" rx="7.08668" fill="#F00000"/>
</g>
<path d="M297.161 170.386L297.427 170.233L297.161 170.079L269.257 153.969L268.991 153.815L268.991 154.122L268.991 186.343L268.991 186.65L269.257 186.496L297.161 170.386Z" fill="url(#paint1_linear_2219_1684)" stroke="#DCDCDC" stroke-width="0.354334"/>
<rect y="301.347" width="560" height="38.4028" fill="#121212"/>
<rect width="560" height="1.94444" transform="matrix(1 0 0 -1 0 300.903)" fill="#565656"/>
<rect width="399.097" height="1.94444" transform="matrix(1 0 0 -1 0 300.903)" fill="#8B8B8B"/>
<rect width="86.5278" height="1.94444" transform="matrix(1 0 0 -1 0 300.903)" fill="#FF0000"/>
<path d="M22.3613 320.104L13.2467 325.367L13.2467 314.842L22.3613 320.104Z" fill="white"/>
<path d="M37.9688 320.179L47.0766 325.438L47.0766 314.921L37.9688 320.179Z" fill="white"/>
<line x1="38.1072" y1="314.801" x2="38.1072" y2="325.904" stroke="white" stroke-width="0.972222"/>
<path d="M75.0937 320.179L65.9859 325.438L65.9859 314.921L75.0937 320.179Z" fill="white"/>
<line y1="-0.486111" x2="11.1028" y2="-0.486111" transform="matrix(-4.37114e-08 1 1 4.37114e-08 75.4395 314.801)" stroke="white" stroke-width="0.972222"/>
<g clip-path="url(#clip1_2219_1684)">
<path d="M92.1172 318.16V322.535H95.0339L98.6797 326.181V314.514L95.0339 318.16H92.1172ZM101.961 320.347C101.961 319.057 101.217 317.948 100.138 317.409V323.279C101.217 322.746 101.961 321.638 101.961 320.347ZM100.138 313.953V315.455C102.245 316.082 103.784 318.036 103.784 320.347C103.784 322.659 102.245 324.613 100.138 325.24V326.742C103.062 326.079 105.242 323.468 105.242 320.347C105.242 317.226 103.062 314.616 100.138 313.953Z" fill="white"/>
</g>
<rect width="48.6111" height="0.972222" transform="matrix(1 0 0 -1 108.889 320.833)" fill="#8B8B8B"/>
<rect width="39.8611" height="0.972222" transform="matrix(1 0 0 -1 108.889 320.833)" fill="#FF0000"/>
<path d="M417.977 323.157C417.455 323.157 416.991 323.068 416.585 322.889C416.181 322.71 415.862 322.461 415.628 322.142C415.393 321.823 415.269 321.455 415.254 321.036H416.617C416.629 321.237 416.696 321.412 416.817 321.562C416.937 321.71 417.098 321.824 417.299 321.907C417.499 321.989 417.724 322.03 417.973 322.03C418.239 322.03 418.474 321.984 418.68 321.892C418.885 321.798 419.046 321.667 419.162 321.5C419.278 321.334 419.335 321.142 419.332 320.924C419.335 320.699 419.277 320.501 419.158 320.33C419.04 320.158 418.868 320.024 418.644 319.927C418.421 319.831 418.153 319.782 417.839 319.782H417.183V318.745H417.839C418.097 318.745 418.323 318.701 418.517 318.611C418.712 318.522 418.866 318.396 418.977 318.234C419.088 318.07 419.143 317.88 419.14 317.665C419.143 317.455 419.096 317.272 418.999 317.118C418.905 316.961 418.77 316.839 418.596 316.752C418.425 316.665 418.223 316.621 417.991 316.621C417.764 316.621 417.554 316.662 417.36 316.744C417.167 316.827 417.011 316.944 416.893 317.096C416.774 317.246 416.711 317.425 416.704 317.632H415.41C415.42 317.217 415.539 316.852 415.769 316.538C416.001 316.221 416.31 315.975 416.697 315.798C417.084 315.619 417.517 315.53 417.998 315.53C418.494 315.53 418.924 315.623 419.289 315.809C419.656 315.993 419.94 316.24 420.141 316.552C420.341 316.864 420.442 317.208 420.442 317.585C420.444 318.003 420.321 318.354 420.072 318.637C419.825 318.919 419.502 319.104 419.1 319.191V319.249C419.622 319.322 420.022 319.515 420.3 319.829C420.581 320.141 420.72 320.529 420.717 320.993C420.717 321.409 420.599 321.781 420.362 322.11C420.127 322.436 419.804 322.692 419.39 322.878C418.98 323.064 418.508 323.157 417.977 323.157ZM422.784 322.164C422.564 322.164 422.376 322.087 422.219 321.932C422.062 321.775 421.984 321.586 421.987 321.366C421.984 321.149 422.062 320.963 422.219 320.808C422.376 320.653 422.564 320.576 422.784 320.576C422.997 320.576 423.182 320.653 423.339 320.808C423.499 320.963 423.579 321.149 423.582 321.366C423.579 321.514 423.541 321.648 423.466 321.769C423.393 321.89 423.297 321.986 423.176 322.059C423.057 322.129 422.927 322.164 422.784 322.164ZM422.784 318.484C422.564 318.484 422.376 318.407 422.219 318.252C422.062 318.095 421.984 317.907 421.987 317.687C421.984 317.469 422.062 317.283 422.219 317.129C422.376 316.972 422.564 316.893 422.784 316.893C422.997 316.893 423.182 316.972 423.339 317.129C423.499 317.283 423.579 317.469 423.582 317.687C423.579 317.832 423.541 317.965 423.466 318.086C423.393 318.206 423.297 318.303 423.176 318.376C423.057 318.448 422.927 318.484 422.784 318.484ZM424.788 321.678V320.609L427.938 315.631H428.83V317.154H428.286L426.166 320.514V320.572H430.563V321.678H424.788ZM428.33 323.056V321.352L428.344 320.873V315.631H429.613V323.056H428.33ZM434.302 323.157C433.819 323.157 433.386 323.067 433.005 322.885C432.623 322.702 432.319 322.45 432.095 322.131C431.872 321.812 431.754 321.447 431.739 321.036H433.044C433.069 321.341 433.2 321.59 433.44 321.783C433.679 321.974 433.966 322.07 434.302 322.07C434.566 322.07 434.8 322.009 435.006 321.888C435.211 321.768 435.373 321.6 435.491 321.384C435.61 321.169 435.668 320.924 435.665 320.649C435.668 320.368 435.609 320.119 435.488 319.902C435.367 319.684 435.201 319.514 434.991 319.391C434.781 319.265 434.539 319.202 434.266 319.202C434.044 319.2 433.825 319.241 433.61 319.325C433.395 319.41 433.224 319.521 433.099 319.659L431.884 319.46L432.272 315.631H436.579V316.755H433.385L433.171 318.724H433.215C433.353 318.562 433.547 318.428 433.798 318.321C434.05 318.213 434.325 318.158 434.625 318.158C435.074 318.158 435.476 318.264 435.828 318.477C436.181 318.687 436.459 318.977 436.662 319.347C436.865 319.717 436.967 320.14 436.967 320.616C436.967 321.107 436.853 321.544 436.626 321.928C436.401 322.31 436.088 322.611 435.687 322.831C435.288 323.048 434.827 323.157 434.302 323.157ZM443.758 315.283L441.366 324.172H440.217L442.609 315.283H443.758ZM450.133 315.631V323.056H448.788V316.94H448.745L447.008 318.049V316.817L448.854 315.631H450.133ZM454.599 323.157C454.116 323.157 453.683 323.067 453.302 322.885C452.92 322.702 452.616 322.45 452.392 322.131C452.169 321.812 452.051 321.447 452.036 321.036H453.341C453.366 321.341 453.497 321.59 453.737 321.783C453.976 321.974 454.263 322.07 454.599 322.07C454.863 322.07 455.097 322.009 455.303 321.888C455.508 321.768 455.67 321.6 455.788 321.384C455.907 321.169 455.965 320.924 455.962 320.649C455.965 320.368 455.906 320.119 455.785 319.902C455.664 319.684 455.498 319.514 455.288 319.391C455.078 319.265 454.836 319.202 454.563 319.202C454.341 319.2 454.122 319.241 453.907 319.325C453.692 319.41 453.521 319.521 453.396 319.659L452.181 319.46L452.569 315.631H456.876V316.755H453.682L453.468 318.724H453.512C453.65 318.562 453.844 318.428 454.095 318.321C454.347 318.213 454.622 318.158 454.922 318.158C455.371 318.158 455.773 318.264 456.126 318.477C456.478 318.687 456.756 318.977 456.959 319.347C457.162 319.717 457.264 320.14 457.264 320.616C457.264 321.107 457.15 321.544 456.923 321.928C456.698 322.31 456.385 322.611 455.984 322.831C455.585 323.048 455.124 323.157 454.599 323.157ZM459.301 322.164C459.081 322.164 458.893 322.087 458.736 321.932C458.579 321.775 458.501 321.586 458.504 321.366C458.501 321.149 458.579 320.963 458.736 320.808C458.893 320.653 459.081 320.576 459.301 320.576C459.514 320.576 459.699 320.653 459.856 320.808C460.015 320.963 460.096 321.149 460.099 321.366C460.096 321.514 460.058 321.648 459.983 321.769C459.91 321.89 459.813 321.986 459.693 322.059C459.574 322.129 459.444 322.164 459.301 322.164ZM459.301 318.484C459.081 318.484 458.893 318.407 458.736 318.252C458.579 318.095 458.501 317.907 458.504 317.687C458.501 317.469 458.579 317.283 458.736 317.129C458.893 316.972 459.081 316.893 459.301 316.893C459.514 316.893 459.699 316.972 459.856 317.129C460.015 317.283 460.096 317.469 460.099 317.687C460.096 317.832 460.058 317.965 459.983 318.086C459.91 318.206 459.813 318.303 459.693 318.376C459.574 318.448 459.444 318.484 459.301 318.484ZM464.183 323.197C463.586 323.197 463.074 323.046 462.646 322.744C462.221 322.439 461.893 322.001 461.664 321.428C461.437 320.853 461.323 320.16 461.323 319.351C461.325 318.541 461.44 317.852 461.667 317.284C461.897 316.714 462.224 316.279 462.65 315.979C463.078 315.68 463.589 315.53 464.183 315.53C464.778 315.53 465.289 315.68 465.717 315.979C466.144 316.279 466.472 316.714 466.699 317.284C466.929 317.855 467.043 318.544 467.043 319.351C467.043 320.163 466.929 320.856 466.699 321.432C466.472 322.004 466.144 322.442 465.717 322.744C465.291 323.046 464.78 323.197 464.183 323.197ZM464.183 322.062C464.647 322.062 465.013 321.834 465.282 321.377C465.552 320.918 465.688 320.243 465.688 319.351C465.688 318.761 465.626 318.266 465.503 317.864C465.38 317.463 465.206 317.161 464.981 316.958C464.756 316.753 464.49 316.65 464.183 316.65C463.722 316.65 463.357 316.88 463.088 317.339C462.82 317.796 462.685 318.466 462.682 319.351C462.68 319.943 462.739 320.441 462.86 320.844C462.983 321.248 463.157 321.552 463.382 321.758C463.607 321.961 463.874 322.062 464.183 322.062ZM470.992 323.197C470.395 323.197 469.883 323.046 469.455 322.744C469.03 322.439 468.702 322.001 468.473 321.428C468.245 320.853 468.132 320.16 468.132 319.351C468.134 318.541 468.249 317.852 468.476 317.284C468.706 316.714 469.033 316.279 469.459 315.979C469.886 315.68 470.398 315.53 470.992 315.53C471.587 315.53 472.098 315.68 472.526 315.979C472.953 316.279 473.281 316.714 473.508 317.284C473.738 317.855 473.852 318.544 473.852 319.351C473.852 320.163 473.738 320.856 473.508 321.432C473.281 322.004 472.953 322.442 472.526 322.744C472.1 323.046 471.589 323.197 470.992 323.197ZM470.992 322.062C471.456 322.062 471.822 321.834 472.091 321.377C472.361 320.918 472.497 320.243 472.497 319.351C472.497 318.761 472.435 318.266 472.312 317.864C472.188 317.463 472.014 317.161 471.79 316.958C471.565 316.753 471.299 316.65 470.992 316.65C470.531 316.65 470.166 316.88 469.897 317.339C469.629 317.796 469.494 318.466 469.491 319.351C469.489 319.943 469.548 320.441 469.669 320.844C469.792 321.248 469.966 321.552 470.191 321.758C470.416 321.961 470.683 322.062 470.992 322.062Z" fill="#B4B4B4"/>
<path d="M492.349 323.056V315.631H494.365V318.532H497.033V315.631H499.049V323.056H497.033V320.156H494.365V323.056H492.349ZM502.862 323.056H500.006V315.631H502.833C503.597 315.631 504.257 315.78 504.813 316.077C505.371 316.372 505.801 316.798 506.103 317.353C506.408 317.907 506.56 318.57 506.56 319.344C506.56 320.117 506.409 320.782 506.107 321.337C505.805 321.891 505.377 322.316 504.823 322.613C504.27 322.908 503.616 323.056 502.862 323.056ZM502.021 321.345H502.79C503.157 321.345 503.47 321.285 503.729 321.167C503.99 321.049 504.188 320.844 504.323 320.554C504.461 320.264 504.53 319.861 504.53 319.344C504.53 318.826 504.46 318.423 504.32 318.133C504.182 317.843 503.979 317.639 503.711 317.52C503.445 317.402 503.118 317.342 502.732 317.342H502.021V321.345Z" fill="#6D6D6D"/>
<g clip-path="url(#clip2_2219_1684)">
<path d="M531.076 321.32H529.617V324.965H533.263V323.507H531.076V321.32ZM529.617 318.403H531.076V316.215H533.263V314.757H529.617V318.403ZM538.367 323.507H536.18V324.965H539.826V321.32H538.367V323.507ZM536.18 314.757V316.215H538.367V318.403H539.826V314.757H536.18Z" fill="white"/>
</g>
</g>
<defs>
<filter id="filter0_d_2219_1684" x="232.056" y="141" width="95.3069" height="62.7083" filterUnits="userSpaceOnUse" color-interpolation-filters="sRGB">
<feFlood flood-opacity="0" result="BackgroundImageFix"/>
<feColorMatrix in="SourceAlpha" type="matrix" values="0 0 0 0 0 0 0 0 0 0 0 0 0 0 0 0 0 0 127 0" result="hardAlpha"/>
<feOffset dy="1.94444"/>
<feGaussianBlur stdDeviation="0.972222"/>
<feComposite in2="hardAlpha" operator="out"/>
<feColorMatrix type="matrix" values="0 0 0 0 0 0 0 0 0 0 0 0 0 0 0 0 0 0 0.25 0"/>
<feBlend mode="normal" in2="BackgroundImageFix" result="effect1_dropShadow_2219_1684"/>
<feBlend mode="normal" in="SourceGraphic" in2="effect1_dropShadow_2219_1684" result="shape"/>
</filter>
<radialGradient id="paint0_radial_2219_1684" cx="0" cy="0" r="1" gradientUnits="userSpaceOnUse" gradientTransform="translate(280 170) rotate(90) scale(170 280)">
<stop stop-color="#747474" stop-opacity="0"/>
<stop offset="1" stop-color="#808080"/>
</radialGradient>
<linearGradient id="paint1_linear_2219_1684" x1="278.293" y1="151.63" x2="278.293" y2="188.835" gradientUnits="userSpaceOnUse">
<stop stop-color="#EAEAEA"/>
<stop offset="1" stop-color="white"/>
</linearGradient>
<clipPath id="clip0_2219_1684">
<rect width="560" height="340" fill="white"/>
</clipPath>
<clipPath id="clip1_2219_1684">
<rect width="17.5" height="17.5" fill="white" transform="translate(89.9297 311.597)"/>
</clipPath>
<clipPath id="clip2_2219_1684">
<rect width="17.5" height="17.5" fill="white" transform="translate(525.973 311.111)"/>
</clipPath>
</defs>
</svg>
