<svg width="150" height="50" viewBox="0 0 150 50" fill="none" xmlns="http://www.w3.org/2000/svg">
<g clip-path="url(#clip0_2826_1851)">
<path d="M138.088 -8.16406e-05H12.3383C11.8799 -8.16406e-05 11.427 -8.16406e-05 10.9699 0.00241836C10.5872 0.00491836 10.2075 0.0121809 9.82117 0.0182934C8.98181 0.0281706 8.14443 0.102014 7.3163 0.239181C6.48933 0.379334 5.68826 0.643563 4.9402 1.02293C4.19305 1.40551 3.51035 1.90263 2.91688 2.49626C2.3203 3.08821 1.823 3.77244 1.44411 4.52262C1.06417 5.2713 0.800723 6.07359 0.662859 6.90177C0.523686 7.7289 0.448795 8.56557 0.438859 9.40427C0.427259 9.78752 0.426034 10.172 0.419922 10.5553V39.4482C0.426034 39.8363 0.427259 40.2123 0.438859 40.6005C0.448798 41.4392 0.523689 42.2758 0.662859 43.1029C0.800342 43.9316 1.06381 44.7343 1.44411 45.4833C1.82283 46.231 2.3202 46.9125 2.91688 47.5012C3.5081 48.0974 4.19124 48.5949 4.9402 48.9745C5.68826 49.3549 6.48923 49.6207 7.3163 49.763C8.14457 49.8991 8.98187 49.973 9.82117 49.984C10.2075 49.9925 10.5872 49.9974 10.9699 49.9974C11.427 49.9999 11.8799 49.9999 12.3383 49.9999H138.088C138.538 49.9999 138.994 49.9999 139.443 49.9974C139.824 49.9974 140.215 49.9925 140.596 49.984C141.433 49.9736 142.269 49.8997 143.096 49.763C143.925 49.6197 144.729 49.354 145.481 48.9745C146.229 48.5947 146.912 48.0972 147.503 47.5012C148.098 46.9102 148.596 46.2292 148.98 45.4833C149.357 44.7338 149.618 43.9311 149.753 43.1029C149.893 42.2757 149.97 41.4393 149.985 40.6005C149.99 40.2123 149.99 39.8363 149.99 39.4482C150 38.994 150 38.5424 150 38.0809V11.9201C150 11.4623 150 11.0082 149.99 10.5553C149.99 10.172 149.99 9.78752 149.985 9.40422C149.97 8.56545 149.893 7.72896 149.753 6.90172C149.618 6.07402 149.357 5.2718 148.98 4.52257C148.208 3.01891 146.984 1.79495 145.481 1.02282C144.729 0.644378 143.925 0.380219 143.096 0.239068C142.269 0.101297 141.434 0.0274281 140.596 0.0181184C140.215 0.0120184 139.824 0.00469336 139.443 0.00225586C138.994 -0.000244141 138.538 -0.000244141 138.088 -0.000244141V-8.16406e-05Z" fill="white"/>
<path d="M10.976 48.9062C10.5952 48.9062 10.2235 48.9014 9.84564 48.8929C9.06287 48.8827 8.28193 48.8145 7.50922 48.689C6.78871 48.5649 6.09072 48.3341 5.43829 48.0041C4.79185 47.6769 4.20223 47.2478 3.69204 46.7334C3.17447 46.225 2.74356 45.6353 2.41641 44.9878C2.08564 44.336 1.85673 43.6374 1.73766 42.9163C1.60906 42.1414 1.53949 41.3579 1.52953 40.5725C1.52161 40.3089 1.51123 39.4311 1.51123 39.4311V10.5554C1.51123 10.5554 1.52228 9.69116 1.52959 9.43725C1.53913 8.6531 1.6083 7.87082 1.73651 7.09716C1.8558 6.37406 2.08489 5.67344 2.41583 5.01954C2.74179 4.37243 3.1703 3.78233 3.68476 3.2721C4.19863 2.75703 4.79013 2.32576 5.43768 1.99401C6.08861 1.66512 6.78527 1.43592 7.50433 1.31409C8.27958 1.1873 9.06323 1.11875 9.84872 1.10901L10.9766 1.09375H139.437L140.579 1.10963C141.357 1.11887 142.134 1.18681 142.902 1.31286C143.628 1.43622 144.332 1.66702 144.99 1.99768C146.288 2.66623 147.343 3.72395 148.009 5.02259C148.335 5.67197 148.56 6.36688 148.678 7.08374C148.808 7.86374 148.88 8.65217 148.895 9.44275C148.899 9.79675 148.899 10.177 148.899 10.5554C148.909 11.0242 148.909 11.4703 148.909 11.9202V38.081C148.909 38.5351 148.909 38.9783 148.899 39.425C148.899 39.8315 148.899 40.2039 148.894 40.5871C148.879 41.3636 148.808 42.138 148.68 42.904C148.564 43.6303 148.336 44.3344 148.005 44.9915C147.676 45.632 147.248 46.2166 146.736 46.7236C146.225 47.2409 145.635 47.6724 144.987 48.0018C144.33 48.3342 143.627 48.5659 142.902 48.689C142.129 48.8152 141.348 48.8834 140.565 48.8929C140.199 48.9014 139.816 48.9062 139.443 48.9062L138.088 48.9087L10.976 48.9062Z" fill="#403E50"/>
<path d="M31.3809 25.3757C31.3944 24.3323 31.6715 23.3094 32.1865 22.4019C32.7016 21.4945 33.4378 20.732 34.3266 20.1856C33.7619 19.3791 33.017 18.7155 32.151 18.2473C31.2849 17.7791 30.3217 17.5193 29.3377 17.4885C27.2386 17.2682 25.2037 18.7445 24.134 18.7445C23.0437 18.7445 21.3968 17.5104 19.6234 17.5468C18.4763 17.5839 17.3584 17.9175 16.3785 18.515C15.3987 19.1126 14.5904 19.9538 14.0323 20.9567C11.6148 25.1422 13.418 31.2935 15.7338 34.6768C16.8924 36.3335 18.2465 38.184 20.0183 38.1184C21.7521 38.0465 22.3997 37.0128 24.4926 37.0128C26.566 37.0128 27.1735 38.1184 28.9813 38.0767C30.8418 38.0465 32.014 36.4126 33.1319 34.7403C33.9644 33.5598 34.605 32.2551 35.03 30.8746C33.9491 30.4175 33.0267 29.6522 32.3778 28.6744C31.7289 27.6965 31.3822 26.5492 31.3809 25.3757Z" fill="white"/>
<path d="M27.9664 15.2634C28.9808 14.0457 29.4806 12.4804 29.3595 10.9001C27.8098 11.0629 26.3782 11.8036 25.3501 12.9747C24.8474 13.5467 24.4624 14.2123 24.2171 14.9332C23.9718 15.6542 23.871 16.4165 23.9204 17.1764C24.6956 17.1844 25.4625 17.0164 26.1633 16.685C26.8641 16.3536 27.4807 15.8676 27.9664 15.2634Z" fill="white"/>
<path d="M53.2976 33.9243H47.3809L45.96 38.1199H43.4539L49.0581 22.5974H51.6619L57.2661 38.1199H54.7173L53.2976 33.9243ZM47.9936 31.9883H52.6836L50.3716 25.1792H50.3069L47.9936 31.9883Z" fill="white"/>
<path d="M69.3694 32.4621C69.3694 35.9789 67.4871 38.2384 64.6465 38.2384C63.927 38.2761 63.2113 38.1103 62.5816 37.7601C61.9518 37.41 61.4334 36.8895 61.0857 36.2584H61.032V41.8639H58.709V26.8029H60.9576V28.6852H61.0003C61.364 28.0571 61.8911 27.5394 62.5257 27.1871C63.1602 26.8348 63.8784 26.6611 64.6038 26.6845C67.4761 26.6845 69.3694 28.955 69.3694 32.4621ZM66.9817 32.4621C66.9817 30.1708 65.7976 28.6644 63.991 28.6644C62.2161 28.6644 61.0222 30.2025 61.0222 32.4621C61.0222 34.7423 62.2161 36.2694 63.991 36.2694C65.7976 36.2694 66.9817 34.7741 66.9817 32.4621Z" fill="white"/>
<path d="M81.8255 32.462C81.8255 35.9789 79.9432 38.2384 77.1026 38.2384C76.383 38.276 75.6674 38.1103 75.0376 37.7601C74.4079 37.4099 73.8895 36.8895 73.5418 36.2584H73.488V41.8639H71.165V26.8029H73.4136V28.6852H73.4563C73.82 28.0571 74.3471 27.5394 74.9817 27.1871C75.6162 26.8348 76.3344 26.6611 77.0598 26.6845C79.9322 26.6845 81.8255 28.955 81.8255 32.462ZM79.4378 32.462C79.4378 30.1708 78.2537 28.6644 76.4471 28.6644C74.6722 28.6644 73.4783 30.2025 73.4783 32.462C73.4783 34.7423 74.6722 36.2694 76.4471 36.2694C78.2537 36.2694 79.4378 34.7741 79.4378 32.462H79.4378Z" fill="white"/>
<path d="M90.0579 33.795C90.23 35.3343 91.7254 36.345 93.7688 36.345C95.7268 36.345 97.1355 35.3342 97.1355 33.9463C97.1355 32.7415 96.2859 32.02 94.2742 31.5256L92.2625 31.041C89.4122 30.3525 88.0889 29.0195 88.0889 26.8564C88.0889 24.1782 90.4229 22.3386 93.7371 22.3386C97.0171 22.3386 99.2657 24.1782 99.3413 26.8564H96.9963C96.856 25.3074 95.5754 24.3723 93.7041 24.3723C91.8328 24.3723 90.5523 25.3184 90.5523 26.6953C90.5523 27.7927 91.3701 28.4385 93.3709 28.9328L95.0811 29.3527C98.2659 30.1059 99.5891 31.3852 99.5891 33.6557C99.5891 36.5598 97.2759 38.3786 93.5967 38.3786C90.1543 38.3786 87.8301 36.6025 87.6799 33.7949L90.0579 33.795Z" fill="white"/>
<path d="M104.603 24.1245V26.8027H106.755V28.6423H104.603V34.8813C104.603 35.8506 105.033 36.3022 105.979 36.3022C106.235 36.2978 106.49 36.2798 106.744 36.2485V38.0771C106.318 38.1566 105.886 38.1926 105.453 38.1845C103.162 38.1845 102.269 37.3239 102.269 35.1291V28.6423H100.623V26.8027H102.269V24.1245H104.603Z" fill="white"/>
<path d="M108.001 32.4619C108.001 28.9011 110.098 26.6636 113.368 26.6636C116.65 26.6636 118.737 28.9011 118.737 32.4619C118.737 36.0325 116.661 38.2603 113.368 38.2603C110.077 38.2603 108.001 36.0325 108.001 32.4619ZM116.37 32.4619C116.37 30.0193 115.251 28.5776 113.368 28.5776C111.486 28.5776 110.368 30.0303 110.368 32.4619C110.368 34.9143 111.486 36.345 113.368 36.345C115.251 36.345 116.37 34.9143 116.37 32.4619H116.37Z" fill="white"/>
<path d="M120.652 26.8028H122.868V28.729H122.922C123.072 28.1274 123.424 27.5957 123.92 27.2234C124.415 26.851 125.024 26.6607 125.644 26.6843C125.912 26.6834 126.179 26.7125 126.44 26.771V28.9439C126.102 28.8406 125.749 28.7932 125.396 28.8035C125.059 28.7898 124.722 28.8493 124.41 28.9779C124.097 29.1065 123.817 29.3012 123.587 29.5485C123.357 29.7959 123.183 30.0901 123.078 30.4109C122.972 30.7318 122.937 31.0717 122.975 31.4072V38.1199H120.652L120.652 26.8028Z" fill="white"/>
<path d="M137.15 34.7959C136.838 36.8503 134.837 38.2602 132.277 38.2602C128.985 38.2602 126.941 36.0544 126.941 32.5156C126.941 28.9658 128.996 26.6636 132.179 26.6636C135.311 26.6636 137.28 28.8144 137.28 32.2458V33.0417H129.286V33.1821C129.249 33.5986 129.302 34.0182 129.439 34.413C129.577 34.8078 129.797 35.1688 130.085 35.472C130.373 35.7752 130.722 36.0136 131.109 36.1715C131.497 36.3294 131.913 36.4031 132.331 36.3877C132.88 36.4391 133.431 36.312 133.902 36.0252C134.372 35.7384 134.738 35.3072 134.944 34.7959L137.15 34.7959ZM129.297 31.4182H134.955C134.976 31.0437 134.919 30.669 134.789 30.3174C134.658 29.9659 134.456 29.6453 134.195 29.3755C133.934 29.1058 133.621 28.8929 133.274 28.7502C132.927 28.6074 132.554 28.5378 132.179 28.5459C131.801 28.5436 131.426 28.6163 131.076 28.7598C130.726 28.9032 130.408 29.1145 130.14 29.3816C129.872 29.6486 129.66 29.9661 129.515 30.3156C129.37 30.6652 129.296 31.0399 129.297 31.4182V31.4182Z" fill="white"/>
<path d="M47.7026 10.9137C48.1897 10.8788 48.6784 10.9524 49.1335 11.1292C49.5886 11.3059 49.9989 11.5815 50.3346 11.9361C50.6703 12.2906 50.9232 12.7152 51.0749 13.1793C51.2267 13.6434 51.2736 14.1354 51.2122 14.6198C51.2122 17.0026 49.9243 18.3723 47.7026 18.3723H45.0085V10.9137H47.7026ZM46.167 17.3175H47.5732C47.9212 17.3383 48.2695 17.2812 48.5927 17.1505C48.9159 17.0197 49.2058 16.8185 49.4414 16.5616C49.677 16.3046 49.8524 15.9983 49.9547 15.6651C50.057 15.3318 50.0838 14.9799 50.0329 14.635C50.0801 14.2914 50.0506 13.9417 49.9467 13.6109C49.8429 13.2801 49.6671 12.9763 49.432 12.7214C49.1969 12.4665 48.9083 12.2667 48.587 12.1364C48.2656 12.0061 47.9195 11.9485 47.5732 11.9677H46.167V17.3175Z" fill="white"/>
<path d="M52.5209 15.5552C52.4855 15.1853 52.5278 14.8121 52.6451 14.4595C52.7624 14.107 52.9521 13.7828 53.202 13.5078C53.4519 13.2328 53.7566 13.0131 54.0964 12.8628C54.4362 12.7124 54.8037 12.6348 55.1753 12.6348C55.5469 12.6348 55.9143 12.7124 56.2542 12.8628C56.594 13.0131 56.8986 13.2328 57.1485 13.5078C57.3985 13.7828 57.5882 14.107 57.7055 14.4595C57.8228 14.8121 57.8651 15.1853 57.8297 15.5552C57.8658 15.9255 57.8239 16.2992 57.707 16.6524C57.59 17.0056 57.4004 17.3303 57.1504 17.6058C56.9004 17.8814 56.5955 18.1015 56.2554 18.2522C55.9152 18.4029 55.5473 18.4807 55.1753 18.4807C54.8032 18.4807 54.4353 18.4029 54.0952 18.2522C53.755 18.1015 53.4502 17.8814 53.2002 17.6058C52.9502 17.3303 52.7606 17.0056 52.6436 16.6524C52.5266 16.2992 52.4848 15.9255 52.5209 15.5552ZM56.6871 15.5552C56.6871 14.3352 56.139 13.6217 55.1771 13.6217C54.2115 13.6217 53.6684 14.3352 53.6684 15.5553C53.6684 16.7851 54.2116 17.4931 55.1771 17.4931C56.139 17.4931 56.6871 16.7802 56.6871 15.5552H56.6871Z" fill="white"/>
<path d="M64.8865 18.3721H63.7341L62.5708 14.2266H62.4829L61.3245 18.3721H60.1831L58.6316 12.7434H59.7583L60.7666 17.0384H60.8496L62.0068 12.7434H63.0725L64.2297 17.0384H64.3176L65.321 12.7434H66.4319L64.8865 18.3721Z" fill="white"/>
<path d="M67.7368 12.7433H68.8062V13.6375H68.8892C69.03 13.3164 69.2675 13.0471 69.5686 12.8674C69.8697 12.6876 70.2193 12.6063 70.5689 12.6347C70.8427 12.6141 71.1177 12.6554 71.3735 12.7555C71.6292 12.8556 71.8592 13.012 72.0463 13.2131C72.2334 13.4141 72.3728 13.6547 72.4543 13.917C72.5358 14.1793 72.5573 14.4565 72.5171 14.7282V18.3719H71.4063V15.0071C71.4063 14.1026 71.0132 13.6528 70.1917 13.6528C70.0057 13.6441 69.8201 13.6758 69.6475 13.7455C69.4749 13.8153 69.3195 13.9216 69.1918 14.0571C69.0642 14.1926 68.9673 14.354 68.9079 14.5305C68.8485 14.7069 68.828 14.8941 68.8477 15.0792V18.372H67.7368L67.7368 12.7433Z" fill="white"/>
<path d="M74.2871 10.5461H75.398V18.3721H74.2871V10.5461Z" fill="white"/>
<path d="M76.9422 15.5553C76.9069 15.1854 76.9492 14.8122 77.0665 14.4596C77.1839 14.107 77.3736 13.7828 77.6235 13.5078C77.8735 13.2328 78.1782 13.0131 78.518 12.8628C78.8578 12.7124 79.2253 12.6348 79.5969 12.6348C79.9686 12.6348 80.3361 12.7124 80.6759 12.8628C81.0157 13.0131 81.3204 13.2328 81.5703 13.5078C81.8203 13.7828 82.01 14.107 82.1274 14.4596C82.2447 14.8122 82.287 15.1854 82.2517 15.5553C82.2877 15.9256 82.2458 16.2994 82.1288 16.6525C82.0118 17.0057 81.8222 17.3304 81.5721 17.606C81.3221 17.8815 81.0172 18.1016 80.6771 18.2523C80.3369 18.4029 79.969 18.4808 79.5969 18.4808C79.2249 18.4808 78.857 18.4029 78.5168 18.2523C78.1766 18.1016 77.8718 17.8815 77.6217 17.606C77.3717 17.3304 77.1821 17.0057 77.0651 16.6525C76.9481 16.2994 76.9062 15.9256 76.9422 15.5553ZM81.1085 15.5553C81.1085 14.3353 80.5604 13.6218 79.5985 13.6218C78.6329 13.6218 78.0897 14.3353 78.0897 15.5554C78.0897 16.7852 78.6329 17.4932 79.5985 17.4932C80.5604 17.4932 81.1085 16.7803 81.1085 15.5553H81.1085Z" fill="white"/>
<path d="M83.4209 16.7803C83.4209 15.7671 84.1753 15.183 85.5144 15.1L87.0391 15.0121V14.5262C87.0391 13.9318 86.646 13.5961 85.8867 13.5961C85.2666 13.5961 84.8369 13.8237 84.7136 14.2217H83.6382C83.7517 13.2549 84.6611 12.6348 85.938 12.6348C87.3491 12.6348 88.145 13.3373 88.145 14.5262V18.3721H87.0757V17.5811H86.9878C86.8094 17.8648 86.5589 18.0961 86.2619 18.2514C85.9648 18.4066 85.6319 18.4803 85.2971 18.4648C85.0608 18.4894 84.822 18.4642 84.5961 18.3908C84.3701 18.3174 84.162 18.1975 83.9853 18.0388C83.8085 17.8801 83.6669 17.6861 83.5697 17.4693C83.4725 17.2526 83.4218 17.0178 83.4209 16.7803ZM87.0391 16.2993V15.8287L85.6646 15.9166C84.8894 15.9685 84.5378 16.2322 84.5378 16.7284C84.5378 17.235 84.9773 17.5298 85.5816 17.5298C85.7586 17.5477 85.9375 17.5298 86.1075 17.4772C86.2775 17.4246 86.4352 17.3383 86.5712 17.2235C86.7072 17.1087 86.8187 16.9677 86.899 16.809C86.9794 16.6502 87.027 16.4769 87.0391 16.2993Z" fill="white"/>
<path d="M89.605 15.5553C89.605 13.7768 90.5193 12.65 91.9414 12.65C92.2932 12.6338 92.6423 12.7181 92.948 12.893C93.2536 13.0678 93.5032 13.3261 93.6675 13.6375H93.7505V10.5461H94.8613V18.3721H93.7969V17.4828H93.709C93.532 17.7921 93.2737 18.0472 92.9622 18.2203C92.6506 18.3934 92.2976 18.478 91.9414 18.4648C90.5095 18.4649 89.605 17.3382 89.605 15.5553ZM90.7525 15.5553C90.7525 16.7492 91.3152 17.4676 92.2564 17.4676C93.1926 17.4676 93.7713 16.7388 93.7713 15.5602C93.7713 14.3871 93.1866 13.648 92.2564 13.648C91.3213 13.648 90.7524 14.3712 90.7524 15.5553H90.7525Z" fill="white"/>
<path d="M99.4574 15.5552C99.422 15.1853 99.4643 14.8121 99.5816 14.4595C99.6989 14.107 99.8886 13.7828 100.139 13.5078C100.388 13.2328 100.693 13.0131 101.033 12.8628C101.373 12.7124 101.74 12.6348 102.112 12.6348C102.483 12.6348 102.851 12.7124 103.191 12.8628C103.53 13.0131 103.835 13.2328 104.085 13.5078C104.335 13.7828 104.525 14.107 104.642 14.4595C104.759 14.8121 104.802 15.1853 104.766 15.5552C104.802 15.9255 104.76 16.2992 104.643 16.6524C104.526 17.0056 104.337 17.3303 104.087 17.6058C103.837 17.8814 103.532 18.1015 103.192 18.2522C102.852 18.4029 102.484 18.4807 102.112 18.4807C101.74 18.4807 101.372 18.4029 101.032 18.2522C100.692 18.1015 100.387 17.8814 100.137 17.6058C99.8867 17.3303 99.6971 17.0056 99.5801 16.6524C99.4631 16.2992 99.4213 15.9255 99.4574 15.5552ZM103.624 15.5552C103.624 14.3352 103.076 13.6217 102.114 13.6217C101.148 13.6217 100.605 14.3352 100.605 15.5553C100.605 16.7851 101.148 17.4931 102.114 17.4931C103.076 17.4931 103.624 16.7802 103.624 15.5552Z" fill="white"/>
<path d="M106.257 12.7433H107.326V13.6375H107.409C107.55 13.3164 107.787 13.0471 108.088 12.8674C108.389 12.6876 108.739 12.6063 109.089 12.6347C109.363 12.6141 109.637 12.6554 109.893 12.7555C110.149 12.8556 110.379 13.012 110.566 13.2131C110.753 13.4141 110.893 13.6547 110.974 13.917C111.056 14.1793 111.077 14.4565 111.037 14.7282V18.3719H109.926V15.0071C109.926 14.1026 109.533 13.6528 108.711 13.6528C108.525 13.6441 108.34 13.6758 108.167 13.7455C107.995 13.8153 107.839 13.9216 107.712 14.0571C107.584 14.1926 107.487 14.354 107.428 14.5305C107.368 14.7069 107.348 14.8941 107.367 15.0792V18.372H106.257V12.7433Z" fill="white"/>
<path d="M117.314 11.342V12.769H118.533V13.7047H117.314V16.599C117.314 17.1886 117.557 17.4468 118.11 17.4468C118.251 17.4463 118.393 17.4378 118.533 17.4211V18.3464C118.334 18.3821 118.132 18.4011 117.929 18.4032C116.694 18.4032 116.202 17.9686 116.202 16.8834V13.7047H115.308V12.769H116.202V11.342H117.314Z" fill="white"/>
<path d="M120.051 10.5461H121.152V13.648H121.24C121.387 13.3238 121.631 13.0531 121.939 12.8726C122.246 12.6922 122.601 12.6108 122.956 12.6397C123.228 12.6248 123.501 12.6703 123.754 12.7729C124.007 12.8754 124.234 13.0325 124.419 13.2329C124.604 13.4334 124.743 13.6722 124.825 13.9323C124.907 14.1925 124.931 14.4676 124.894 14.738V18.3721H123.783V15.0121C123.783 14.113 123.364 13.6577 122.579 13.6577C122.388 13.642 122.196 13.6683 122.016 13.7346C121.836 13.8009 121.673 13.9057 121.538 14.0416C121.403 14.1776 121.3 14.3413 121.235 14.5215C121.17 14.7017 121.145 14.8939 121.162 15.0847V18.3721H120.051L120.051 10.5461Z" fill="white"/>
<path d="M131.371 16.8524C131.22 17.3668 130.893 17.8118 130.448 18.1095C130.002 18.4072 129.465 18.5386 128.932 18.4808C128.562 18.4906 128.193 18.4196 127.852 18.2726C127.512 18.1257 127.207 17.9065 126.96 17.63C126.712 17.3536 126.528 17.0267 126.42 16.6719C126.311 16.3171 126.282 15.943 126.332 15.5755C126.283 15.2069 126.313 14.832 126.421 14.4762C126.53 14.1203 126.713 13.7919 126.959 13.513C127.205 13.2342 127.508 13.0115 127.848 12.86C128.187 12.7085 128.556 12.6317 128.928 12.6349C130.494 12.6349 131.439 13.7049 131.439 15.4724V15.86H127.464V15.9222C127.447 16.1288 127.473 16.3367 127.54 16.5326C127.608 16.7286 127.716 16.9082 127.857 17.06C127.998 17.2118 128.169 17.3325 128.36 17.4142C128.55 17.496 128.756 17.537 128.963 17.5347C129.229 17.5666 129.498 17.5188 129.736 17.3973C129.975 17.2758 130.172 17.0861 130.302 16.8523L131.371 16.8524ZM127.464 15.0384H130.307C130.321 14.8495 130.295 14.6598 130.232 14.4814C130.168 14.303 130.068 14.1399 129.937 14.0025C129.807 13.8652 129.649 13.7567 129.474 13.684C129.299 13.6113 129.111 13.576 128.921 13.5803C128.729 13.5779 128.539 13.614 128.361 13.6864C128.183 13.7588 128.021 13.8661 127.885 14.002C127.749 14.1379 127.642 14.2996 127.57 14.4776C127.497 14.6556 127.461 14.8463 127.464 15.0384H127.464Z" fill="white"/>
</g>
<defs>
<clipPath id="clip0_2826_1851">
<rect width="149.58" height="50" fill="white" transform="translate(0.419922)"/>
</clipPath>
</defs>
</svg>
