<svg width="126" height="125" viewBox="0 0 126 125" fill="none" xmlns="http://www.w3.org/2000/svg">
<circle cx="63" cy="62.5" r="61.0062" fill="url(#paint0_linear_3096_4918)" stroke="#8279BB" stroke-width="2.0125"/>
<mask id="path-2-outside-1_3096_4918" maskUnits="userSpaceOnUse" x="9.625" y="9.125" width="86" height="106" fill="black">
<rect fill="white" x="9.625" y="9.125" width="86" height="106"/>
<path d="M91.3038 103.083C84.8403 107.608 77.3974 110.54 69.5837 111.638C61.7699 112.737 53.8072 111.97 46.3466 109.401C38.886 106.832 32.1392 102.534 26.658 96.8579C21.1768 91.182 17.1167 84.2893 14.8098 76.7436C12.5028 69.1978 12.0144 61.2132 13.3846 53.4426C14.7548 45.6719 17.9446 38.3359 22.6932 32.0343C27.4419 25.7326 33.6145 20.6443 40.7064 17.1853C47.7984 13.7263 55.6083 11.9949 63.4976 12.1326L62.625 62.125L91.3038 103.083Z"/>
</mask>
<path d="M91.3038 103.083C84.8403 107.608 77.3974 110.54 69.5837 111.638C61.7699 112.737 53.8072 111.97 46.3466 109.401C38.886 106.832 32.1392 102.534 26.658 96.8579C21.1768 91.182 17.1167 84.2893 14.8098 76.7436C12.5028 69.1978 12.0144 61.2132 13.3846 53.4426C14.7548 45.6719 17.9446 38.3359 22.6932 32.0343C27.4419 25.7326 33.6145 20.6443 40.7064 17.1853C47.7984 13.7263 55.6083 11.9949 63.4976 12.1326L62.625 62.125L91.3038 103.083Z" fill="url(#paint1_linear_3096_4918)"/>
<path d="M91.3038 103.083C84.8403 107.608 77.3974 110.54 69.5837 111.638C61.7699 112.737 53.8072 111.97 46.3466 109.401C38.886 106.832 32.1392 102.534 26.658 96.8579C21.1768 91.182 17.1167 84.2893 14.8098 76.7436C12.5028 69.1978 12.0144 61.2132 13.3846 53.4426C14.7548 45.6719 17.9446 38.3359 22.6932 32.0343C27.4419 25.7326 33.6145 20.6443 40.7064 17.1853C47.7984 13.7263 55.6083 11.9949 63.4976 12.1326L62.625 62.125L91.3038 103.083Z" stroke="white" stroke-width="6" mask="url(#path-2-outside-1_3096_4918)"/>
<circle cx="62.625" cy="62.125" r="53" stroke="white" stroke-width="6"/>
<g filter="url(#filter0_d_3096_4918)">
<path d="M76.464 63.41C75.696 63.41 74.9227 63.314 74.144 63.122C73.3653 62.93 72.6933 62.658 72.128 62.306L73.264 59.922C73.7227 60.2207 74.2187 60.45 74.752 60.61C75.296 60.77 75.8347 60.85 76.368 60.85C76.9013 60.85 77.3333 60.7487 77.664 60.546C77.9947 60.3327 78.16 60.0394 78.16 59.666C78.16 59.442 78.096 59.2447 77.968 59.074C77.84 58.8927 77.6213 58.7594 77.312 58.674C77.0027 58.578 76.56 58.53 75.984 58.53H72.944L73.504 51.986H80.64V54.434H74.624L76.24 53.042L75.872 57.458L74.256 56.066H76.736C77.8453 56.066 78.736 56.226 79.408 56.546C80.08 56.8554 80.5707 57.2767 80.88 57.81C81.1893 58.3327 81.344 58.9247 81.344 59.586C81.344 60.2474 81.168 60.8714 80.816 61.458C80.4747 62.034 79.9467 62.5034 79.232 62.866C78.5173 63.2287 77.5947 63.41 76.464 63.41ZM87.2068 63.41C86.2468 63.41 85.3934 63.1807 84.6468 62.722C83.9108 62.2634 83.3294 61.602 82.9028 60.738C82.4761 59.874 82.2628 58.8234 82.2628 57.586C82.2628 56.3487 82.4761 55.298 82.9028 54.434C83.3294 53.57 83.9108 52.9087 84.6468 52.45C85.3934 51.9914 86.2468 51.762 87.2068 51.762C88.1561 51.762 88.9988 51.9914 89.7348 52.45C90.4814 52.9087 91.0681 53.57 91.4948 54.434C91.9214 55.298 92.1348 56.3487 92.1348 57.586C92.1348 58.8234 91.9214 59.874 91.4948 60.738C91.0681 61.602 90.4814 62.2634 89.7348 62.722C88.9988 63.1807 88.1561 63.41 87.2068 63.41ZM87.2068 60.818C87.5481 60.818 87.8468 60.7114 88.1028 60.498C88.3694 60.2847 88.5774 59.9434 88.7268 59.474C88.8761 58.994 88.9508 58.3647 88.9508 57.586C88.9508 56.7967 88.8761 56.1674 88.7268 55.698C88.5774 55.2287 88.3694 54.8874 88.1028 54.674C87.8468 54.4607 87.5481 54.354 87.2068 54.354C86.8654 54.354 86.5614 54.4607 86.2948 54.674C86.0388 54.8874 85.8308 55.2287 85.6708 55.698C85.5214 56.1674 85.4468 56.7967 85.4468 57.586C85.4468 58.3647 85.5214 58.994 85.6708 59.474C85.8308 59.9434 86.0388 60.2847 86.2948 60.498C86.5614 60.7114 86.8654 60.818 87.2068 60.818ZM94.8639 63.186L102.512 51.986H104.816L97.1679 63.186H94.8639ZM95.8879 58.05C95.3439 58.05 94.8532 57.9274 94.4159 57.682C93.9785 57.4367 93.6372 57.0847 93.3919 56.626C93.1465 56.1567 93.0239 55.5967 93.0239 54.946C93.0239 54.2954 93.1465 53.7407 93.3919 53.282C93.6372 52.8234 93.9785 52.4714 94.4159 52.226C94.8532 51.97 95.3439 51.842 95.8879 51.842C96.4425 51.842 96.9332 51.97 97.3599 52.226C97.7972 52.4714 98.1385 52.8234 98.3839 53.282C98.6399 53.7407 98.7679 54.2954 98.7679 54.946C98.7679 55.586 98.6399 56.1407 98.3839 56.61C98.1385 57.0794 97.7972 57.4367 97.3599 57.682C96.9332 57.9274 96.4425 58.05 95.8879 58.05ZM95.9039 56.53C96.1705 56.53 96.3892 56.4074 96.5599 56.162C96.7412 55.9167 96.8319 55.5114 96.8319 54.946C96.8319 54.3807 96.7412 53.9754 96.5599 53.73C96.3892 53.4847 96.1705 53.362 95.9039 53.362C95.6372 53.362 95.4079 53.4847 95.2159 53.73C95.0345 53.9754 94.9439 54.3807 94.9439 54.946C94.9439 55.5114 95.0345 55.9167 95.2159 56.162C95.4079 56.4074 95.6372 56.53 95.9039 56.53ZM103.792 63.33C103.237 63.33 102.741 63.2074 102.304 62.962C101.877 62.7167 101.541 62.3647 101.296 61.906C101.051 61.4367 100.928 60.8767 100.928 60.226C100.928 59.5754 101.051 59.0207 101.296 58.562C101.541 58.1034 101.877 57.7514 102.304 57.506C102.741 57.25 103.237 57.122 103.792 57.122C104.347 57.122 104.837 57.25 105.264 57.506C105.701 57.7514 106.043 58.1034 106.288 58.562C106.544 59.0207 106.672 59.5754 106.672 60.226C106.672 60.8767 106.544 61.4367 106.288 61.906C106.043 62.3647 105.701 62.7167 105.264 62.962C104.837 63.2074 104.347 63.33 103.792 63.33ZM103.792 61.81C104.059 61.81 104.283 61.6874 104.464 61.442C104.645 61.1967 104.736 60.7914 104.736 60.226C104.736 59.6607 104.645 59.2554 104.464 59.01C104.283 58.7647 104.059 58.642 103.792 58.642C103.536 58.642 103.312 58.7647 103.12 59.01C102.939 59.2554 102.848 59.6607 102.848 60.226C102.848 60.7914 102.939 61.1967 103.12 61.442C103.312 61.6874 103.536 61.81 103.792 61.81Z" fill="#403E50"/>
</g>
<defs>
<filter id="filter0_d_3096_4918" x="68.1281" y="51.762" width="42.5438" height="19.6482" filterUnits="userSpaceOnUse" color-interpolation-filters="sRGB">
<feFlood flood-opacity="0" result="BackgroundImageFix"/>
<feColorMatrix in="SourceAlpha" type="matrix" values="0 0 0 0 0 0 0 0 0 0 0 0 0 0 0 0 0 0 127 0" result="hardAlpha"/>
<feOffset dy="4"/>
<feGaussianBlur stdDeviation="2"/>
<feComposite in2="hardAlpha" operator="out"/>
<feColorMatrix type="matrix" values="0 0 0 0 0 0 0 0 0 0 0 0 0 0 0 0 0 0 0.25 0"/>
<feBlend mode="normal" in2="BackgroundImageFix" result="effect1_dropShadow_3096_4918"/>
<feBlend mode="normal" in="SourceGraphic" in2="effect1_dropShadow_3096_4918" result="shape"/>
</filter>
<linearGradient id="paint0_linear_3096_4918" x1="63" y1="2.5" x2="63" y2="122.5" gradientUnits="userSpaceOnUse">
<stop stop-color="#8279BB"/>
<stop offset="1" stop-color="#8279BB" stop-opacity="0"/>
</linearGradient>
<linearGradient id="paint1_linear_3096_4918" x1="62.625" y1="12.125" x2="62.625" y2="112.125" gradientUnits="userSpaceOnUse">
<stop stop-color="#403E50"/>
<stop offset="1" stop-color="#5C0E62" stop-opacity="0"/>
</linearGradient>
</defs>
</svg>
