<svg width="146" height="39" viewBox="0 0 146 39" fill="none" xmlns="http://www.w3.org/2000/svg">
<path d="M97.8718 15.7948L91.3167 21.9518L98.385 30.0757C96.634 30.0757 95.1168 30.1057 93.6028 30.0457C93.3538 30.0357 93.088 29.6567 92.885 29.4037C91.077 27.1607 89.2849 24.9037 87.2649 22.6967V30.0048H83.5647V9.25977H87.197V21.4388L87.4856 21.5958C87.9636 21.0648 88.4367 20.5287 88.9197 20.0027C90.1467 18.6687 91.3639 17.3248 92.6199 16.0178C92.8791 15.7285 93.2303 15.5374 93.614 15.4767C94.95 15.4147 96.2906 15.4518 97.6296 15.4518L97.8718 15.7948Z" fill="#8989A2"/>
<path d="M131.177 30.0957V15.5228H134.677V17.4798L135.051 17.7488C135.076 17.5536 135.134 17.3644 135.225 17.1898C135.944 16.2248 136.956 15.5183 138.109 15.1759C139.263 14.8334 140.496 14.8734 141.625 15.2897C142.695 15.6715 143.616 16.3815 144.257 17.3183C144.899 18.2551 145.228 19.3707 145.197 20.5058C145.234 23.6578 145.206 26.8108 145.206 30.0948C144.087 30.0948 143.052 30.1407 142.028 30.0567C141.817 30.0397 141.487 29.5418 141.481 29.2568C141.435 27.0728 141.457 24.8888 141.454 22.7038C141.454 22.3038 141.448 21.8968 141.425 21.4948C141.292 19.1438 140.359 18.0337 138.517 18.0267C138.044 18.0069 137.572 18.0844 137.13 18.2545C136.688 18.4246 136.287 18.6836 135.949 19.0155C135.611 19.3474 135.346 19.7451 135.168 20.184C134.991 20.6229 134.905 21.0935 134.917 21.5668C134.824 24.0168 134.833 26.4728 134.88 28.9248C134.898 29.8338 134.67 30.2058 133.713 30.1108C132.89 30.0308 132.053 30.0957 131.177 30.0957Z" fill="#8989A2"/>
<path d="M69.8098 30.0298H66.2366V15.5219H69.6829C69.7209 16.2079 69.7569 16.8529 69.8069 17.7329C70.2212 17.0184 70.7913 16.4066 71.4749 15.9431C72.1584 15.4796 72.9376 15.1763 73.7546 15.0558C77.4896 14.6208 80.1138 16.8499 80.2068 20.6259C80.2778 23.5139 80.2067 26.4049 80.2327 29.2939C80.2377 29.9089 80.0327 30.1308 79.4177 30.1058C78.4847 30.0678 77.55 30.0959 76.47 30.0959C76.47 29.5819 76.476 29.1599 76.47 28.7379C76.427 26.0539 76.4197 23.3689 76.3167 20.6869C76.3365 20.0875 76.1449 19.5004 75.7751 19.0283C75.4054 18.5562 74.8813 18.2293 74.2947 18.1049C73.629 17.8843 72.9081 17.8978 72.2512 18.1432C71.5943 18.3885 71.041 18.851 70.6829 19.4539C70.176 20.425 69.8902 21.4963 69.8459 22.5909C69.7289 25.0389 69.8098 27.4878 69.8098 30.0298Z" fill="#8989A2"/>
<path d="M40.2712 18.27H37.8352V15.484H40.4543C40.4543 13.768 40.4543 12.171 40.4543 10.573C40.4543 9.268 40.4544 9.26799 41.7634 9.26599C44.1404 9.26599 44.1394 9.26601 44.1414 11.622C44.1414 12.7647 44.1477 13.9073 44.1604 15.05C44.1848 15.1749 44.2238 15.2964 44.2771 15.412H47.9333V18.239H44.2122C44.1852 18.709 44.1453 19.094 44.1443 19.479C44.1443 21.394 44.1152 23.311 44.1692 25.225C44.2222 27.092 44.9404 27.653 46.8054 27.419C47.1004 27.382 47.3991 27.37 47.6711 27.348C47.7161 27.427 47.7463 27.456 47.7473 27.486C47.8273 30.196 48.4832 30.286 45.2732 30.349C42.0382 30.414 40.4973 28.914 40.3953 25.685C40.3303 23.603 40.3591 21.519 40.3391 19.436C40.3351 19.076 40.2972 18.718 40.2712 18.27Z" fill="#8989A2"/>
<path d="M27.6082 15.956C27.4262 16.111 27.354 16.169 27.2859 16.232C27.0579 16.444 26.8307 16.6567 26.6033 16.87C26.3942 16.6238 26.2165 16.3524 26.075 16.062C25.823 15.334 25.6753 14.569 25.4173 13.844C24.9796 12.3563 24.2227 10.9818 23.2 9.81601C22.2 12.208 22.2 12.208 21.679 12.463C21.4953 10.9815 21.2349 9.51046 20.8983 8.056C20.4913 6.597 19.8183 5.21201 19.2083 3.65601L18.0164 5.76202C17.4994 4.53202 17.1451 3.48701 16.6321 2.52701C16.1777 1.47193 15.4016 0.587466 14.4144 0C14.2144 5.153 11.6572 8.83401 7.37921 10.152L6.84015 8.22202C5.48746 9.39383 4.49313 10.9239 3.97198 12.636C3.44598 14.283 3.072 15.978 2.617 17.68L2.01739 17.401C1.24816 19.1283 0.780696 20.9747 0.636047 22.86C-0.0259532 30.492 6.26836 37.913 13.5604 38.003C16.815 38.1609 20.0107 37.0938 22.5174 35.012C28.5224 29.878 28.9062 23.194 27.6082 15.956ZM20.2859 31.891C19.9751 31.9814 19.6891 32.1409 19.4485 32.3575C19.208 32.5741 19.0196 32.8423 18.8973 33.142C18.4184 34.1287 17.6368 34.9369 16.6668 35.4489C15.6969 35.961 14.5891 36.1502 13.5042 35.989C12.4013 35.806 11.3955 35.2473 10.6575 34.4074C9.91956 33.5676 9.495 32.4983 9.45538 31.381C9.40887 31.0137 9.22004 30.6791 8.92999 30.449C8.04167 29.9197 7.34491 29.1212 6.94073 28.1694C6.53656 27.2176 6.44592 26.1618 6.68195 25.155C6.83955 24.2032 7.28121 23.3211 7.94855 22.6243C8.61588 21.9276 9.47803 21.4485 10.4222 21.25C11.3945 20.9497 12.4388 20.9803 13.3919 21.3369C14.345 21.6936 15.153 22.3562 15.6893 23.221C15.7663 23.327 15.8534 23.427 15.9354 23.53L16.035 23.247C17.2886 23.0243 18.5638 22.9458 19.8353 23.013C20.7883 23.1833 21.653 23.6776 22.2835 24.4124C22.914 25.1471 23.2716 26.0771 23.2952 27.045C23.4006 28.072 23.1622 29.1049 22.6175 29.9819C22.0728 30.8588 21.2523 31.5303 20.285 31.891H20.2859Z" fill="#8989A2"/>
<path d="M113.352 22.3897C113.308 18.4897 111.032 15.6718 107.462 15.0898C103.383 14.4198 99.5734 16.4737 98.3714 20.0717C96.8444 24.6407 99.0365 29.6717 104.66 30.3947C107.727 30.7887 110.451 30.1948 112.65 27.6168C112.096 27.3271 111.558 27.0073 111.038 26.6588C110.772 26.4455 110.442 26.3271 110.1 26.3222C109.759 26.3173 109.425 26.4262 109.153 26.6317C108.269 27.0973 107.306 27.3937 106.314 27.5057C105.772 27.5718 105.222 27.5286 104.697 27.3787C104.172 27.2289 103.682 26.9754 103.257 26.6332C102.831 26.2911 102.479 25.8672 102.22 25.3866C101.961 24.9059 101.8 24.3783 101.748 23.8347H113.348C113.352 23.2577 113.358 22.8237 113.352 22.3897ZM101.821 21.2737C101.802 20.6725 101.957 20.0787 102.269 19.564C102.58 19.0494 103.034 18.636 103.576 18.3737C104.236 17.9328 105.008 17.6899 105.802 17.6736C106.596 17.6573 107.378 17.8683 108.056 18.2817C108.567 18.5867 108.982 19.0304 109.251 19.5614C109.521 20.0924 109.634 20.6889 109.578 21.2817L101.821 21.2737Z" fill="#8989A2"/>
<path d="M128.477 19.638C128.434 18.6291 128.046 17.6658 127.377 16.9097C126.708 16.1535 125.799 15.6504 124.803 15.485C123.169 15.1778 121.499 15.1078 119.846 15.277C118.191 15.4493 116.646 16.1842 115.469 17.359L117.339 19.476C117.723 19.218 117.993 19.019 118.278 18.847C119.024 18.3252 119.888 17.9966 120.792 17.8905C121.696 17.7844 122.613 17.9041 123.459 18.239C123.737 18.3195 123.996 18.4546 124.221 18.6364C124.445 18.8182 124.632 19.0431 124.768 19.2978C124.905 19.5525 124.99 19.8319 125.018 20.1198C125.045 20.4076 125.015 20.698 124.929 20.974C124.481 20.999 124.015 21.029 123.55 21.052C121.133 21.172 118.698 21.264 116.55 22.57C115.948 22.9125 115.446 23.4057 115.093 24.001C114.739 24.5963 114.547 25.2733 114.534 25.9654C114.522 26.6576 114.689 27.3411 115.02 27.9488C115.352 28.5566 115.836 29.0677 116.425 29.432C117.72 30.2284 119.238 30.5821 120.751 30.44C121.592 30.4129 122.418 30.2094 123.175 29.8426C123.932 29.4759 124.603 28.954 125.145 28.311C125.196 29.011 125.231 29.495 125.27 30.031H128.815C128.716 26.518 128.714 23.07 128.477 19.638ZM123.678 27.038C123.04 27.482 122.294 27.7445 121.519 27.7973C120.744 27.8502 119.97 27.6914 119.278 27.338C119.017 27.2167 118.793 27.0282 118.629 26.7918C118.466 26.5554 118.368 26.2796 118.346 25.9929C118.324 25.7061 118.38 25.4188 118.506 25.1604C118.632 24.9021 118.825 24.682 119.064 24.523C119.533 24.1449 120.084 23.8825 120.672 23.757C122.072 23.529 123.503 23.441 125.026 23.287C125.223 24.937 124.921 26.224 123.675 27.034L123.678 27.038Z" fill="#8989A2"/>
<path d="M57.1337 15.0492C52.0947 14.9162 48.7017 17.9301 48.6117 22.6201C48.5985 24.7153 49.4179 26.73 50.8901 28.2209C52.3622 29.7118 54.3666 30.5569 56.4618 30.5701C58.557 30.5834 60.5715 29.7638 62.0624 28.2916C63.5533 26.8195 64.3983 24.8154 64.4115 22.7201C64.4436 21.737 64.2801 20.7573 63.9306 19.8378C63.5811 18.9183 63.0529 18.0774 62.3759 17.3638C61.6989 16.6502 60.8866 16.0781 59.9867 15.6808C59.0869 15.2834 58.1172 15.0688 57.1337 15.0492ZM60.3827 24.3971C60.2688 24.9245 60.0483 25.4231 59.7348 25.8622C59.4212 26.3013 59.0213 26.6717 58.5595 26.9507C58.0976 27.2296 57.5833 27.4113 57.0487 27.4844C56.5142 27.5576 55.9704 27.5207 55.4506 27.3761C53.5756 26.8901 52.3849 25.0151 52.3979 22.5701C52.4159 19.3061 54.7788 17.2802 57.6698 18.0502C59.9618 18.6602 61.1617 21.4671 60.3827 24.3971Z" fill="#8989A2"/>
<path d="M17.1438 28.1131C17.5438 27.6801 17.7898 27.1961 18.1438 27.0921C18.3569 27.0486 18.5773 27.0535 18.7883 27.1065C18.9993 27.1594 19.1957 27.2591 19.363 27.3981C19.632 27.6641 19.6249 28.2081 19.7859 28.8051L17.1438 28.1131Z" fill="#8989A2"/>
<path d="M10.7963 27.098C10.7863 26.174 11.1711 25.68 12.0351 25.709C12.8351 25.736 13.2282 26.19 13.1352 27.098H10.7963Z" fill="#8989A2"/>
</svg>
