<svg width="18" height="14" fill="none" xmlns="http://www.w3.org/2000/svg"><path d="M17.028.36c-.679.32-1.835.922-2.415 1.037-.023.005-.041.013-.063.019a3.75 3.75 0 0 0-6.383 2.667c0 .11-.01.31 0 .417-2.682 0-4.64-1.4-6.106-3.198-.196-.241-.404-.115-.448.056-.097.389-.13 1.038-.13 1.501 0 1.168.912 2.314 2.333 3.025-.262.068-.55.116-.85.116-.353 0-.76-.093-1.116-.28-.132-.068-.416-.05-.332.287.338 1.35 1.878 2.297 3.254 2.573-.313.184-.98.147-1.286.147-.113 0-.508-.027-.763-.059-.232-.028-.59.032-.29.485.642.973 2.095 1.584 3.346 1.607-1.151.903-3.035 1.233-4.839 1.233-.365-.008-.347.408-.052.562 1.33.698 3.51 1.112 5.068 1.112 6.192 0 9.71-4.72 9.71-9.168 0-.072 0-.222-.003-.372 0-.015.004-.03.004-.045 0-.022-.007-.044-.007-.066l-.007-.274c.49-.355 1.242-.97 1.622-1.44.13-.16.025-.355-.15-.294-.453.158-1.236.463-1.726.521.981-.649 1.466-1.214 1.883-1.842.142-.214-.036-.431-.254-.328z" fill="#fff"/></svg>