<svg width="126" height="125" viewBox="0 0 126 125" fill="none" xmlns="http://www.w3.org/2000/svg">
<circle cx="63" cy="62.814" r="61.0062" fill="url(#paint0_linear_2993_1414)" stroke="#8279BB" stroke-width="2.0125"/>
<circle cx="62.625" cy="62.439" r="53" stroke="white" stroke-width="6"/>
<path d="M46.7901 36.5C41.5414 36.5 36.5078 38.585 32.7964 42.2964C29.085 46.0078 27 51.0414 27 56.2901C27 58.0892 27.3238 59.8883 27.7916 61.6874H42.4723L47.042 49.5615C48.1214 46.6829 52.3673 46.3951 53.7346 49.5615L61.1829 68.8838L63.3058 63.7744C63.7736 62.587 65.033 61.6874 66.5802 61.6874H98.1724C98.6402 59.8883 98.964 58.0892 98.964 56.2901C98.964 51.0414 96.879 46.0078 93.1676 42.2964C89.4563 38.585 84.4226 36.5 79.1739 36.5C72.4813 36.5 66.5802 39.8463 62.982 44.9198C59.3838 39.8463 53.4828 36.5 46.7901 36.5ZM30.5982 67.0847C29.6439 67.0847 28.7287 67.4638 28.0539 68.1386C27.3791 68.8134 27 69.7286 27 70.6829C27 71.6372 27.3791 72.5524 28.0539 73.2272C28.7287 73.902 29.6439 74.2811 30.5982 74.2811H39.3778L59.3838 94.0712C62.982 97.3096 62.982 97.3096 66.5802 94.0712L86.5862 74.2811H95.3658C96.3201 74.2811 97.2353 73.902 97.9101 73.2272C98.5849 72.5524 98.964 71.6372 98.964 70.6829C98.964 69.7286 98.5849 68.8134 97.9101 68.1386C97.2353 67.4638 96.3201 67.0847 95.3658 67.0847H68.0195L64.6732 75.3606C63.2339 78.9948 59.096 78.491 57.7646 75.4685L50.3883 56.2901L46.934 64.6739C46.3943 66.0412 45.1709 67.0847 43.5517 67.0847H30.5982Z" fill="url(#paint1_linear_2993_1414)"/>
<defs>
<linearGradient id="paint0_linear_2993_1414" x1="63" y1="2.81396" x2="63" y2="122.814" gradientUnits="userSpaceOnUse">
<stop stop-color="#8279BB"/>
<stop offset="1" stop-color="#8279BB" stop-opacity="0"/>
</linearGradient>
<linearGradient id="paint1_linear_2993_1414" x1="62.982" y1="36.5" x2="94.5" y2="111" gradientUnits="userSpaceOnUse">
<stop stop-color="#403E50"/>
<stop offset="1" stop-color="#5C0E62" stop-opacity="0"/>
</linearGradient>
</defs>
</svg>
